<svg xmlns="http://www.w3.org/2000/svg" xmlns:xlink="http://www.w3.org/1999/xlink" width="391" zoomAndPan="magnify" viewBox="0 0 293.25 239.999995" height="320" preserveAspectRatio="xMidYMid meet" version="1.0"><defs><clipPath id="ef36817fc1"><path d="M 0 0.304688 L 129 0.304688 L 129 239 L 0 239 Z M 0 0.304688 " clip-rule="nonzero"/></clipPath><clipPath id="6ddaf188a2"><path d="M 0 0.304688 L 129 0.304688 L 129 239 L 0 239 Z M 0 0.304688 " clip-rule="nonzero"/></clipPath></defs><path fill="#000000" d="M 281.617188 130.199219 L 9.523438 130.199219 C 8.851562 130.199219 8.191406 130.132812 7.53125 130.003906 C 6.875 129.871094 6.238281 129.679688 5.617188 129.421875 C 5 129.167969 4.410156 128.851562 3.855469 128.480469 C 3.296875 128.109375 2.78125 127.683594 2.308594 127.210938 C 1.835938 126.738281 1.410156 126.222656 1.039062 125.667969 C 0.667969 125.109375 0.351562 124.523438 0.0976562 123.902344 C -0.160156 123.285156 -0.351562 122.648438 -0.484375 121.988281 C -0.613281 121.332031 -0.679688 120.667969 -0.679688 120 C -0.679688 119.332031 -0.613281 118.667969 -0.484375 118.011719 C -0.351562 117.351562 -0.160156 116.714844 0.0976562 116.097656 C 0.351562 115.476562 0.667969 114.890625 1.039062 114.332031 C 1.410156 113.777344 1.835938 113.261719 2.308594 112.789062 C 2.78125 112.316406 3.296875 111.890625 3.855469 111.519531 C 4.410156 111.148438 5 110.832031 5.617188 110.578125 C 6.238281 110.320312 6.875 110.128906 7.53125 109.996094 C 8.191406 109.867188 8.851562 109.800781 9.523438 109.800781 L 281.617188 109.800781 C 282.289062 109.800781 282.953125 109.867188 283.609375 109.996094 C 284.265625 110.128906 284.902344 110.320312 285.523438 110.578125 C 286.140625 110.832031 286.730469 111.148438 287.285156 111.519531 C 287.84375 111.890625 288.359375 112.316406 288.832031 112.789062 C 289.308594 113.261719 289.730469 113.777344 290.101562 114.332031 C 290.472656 114.890625 290.789062 115.476562 291.046875 116.097656 C 291.300781 116.714844 291.496094 117.351562 291.625 118.011719 C 291.757812 118.667969 291.820312 119.332031 291.820312 120 C 291.820312 120.667969 291.757812 121.332031 291.625 121.988281 C 291.496094 122.648438 291.300781 123.285156 291.042969 123.902344 C 290.789062 124.523438 290.472656 125.109375 290.101562 125.667969 C 289.730469 126.222656 289.308594 126.738281 288.832031 127.210938 C 288.359375 127.683594 287.84375 128.109375 287.285156 128.480469 C 286.730469 128.851562 286.140625 129.167969 285.523438 129.421875 C 284.902344 129.679688 284.265625 129.871094 283.609375 130.003906 C 282.953125 130.132812 282.289062 130.199219 281.617188 130.199219 Z M 281.617188 130.199219 " fill-opacity="1" fill-rule="nonzero"/><g clip-path="url(#ef36817fc1)"><path fill="#000000" d="M 118.359375 238.988281 C 117.007812 238.992188 115.707031 238.734375 114.457031 238.214844 C 113.207031 237.699219 112.105469 236.957031 111.152344 235.996094 L 2.3125 127.207031 C 1.839844 126.734375 1.414062 126.21875 1.042969 125.664062 C 0.671875 125.105469 0.355469 124.519531 0.101562 123.902344 C -0.15625 123.28125 -0.351562 122.644531 -0.480469 121.988281 C -0.613281 121.332031 -0.675781 120.667969 -0.675781 120 C -0.675781 119.332031 -0.613281 118.667969 -0.480469 118.011719 C -0.351562 117.355469 -0.15625 116.71875 0.101562 116.097656 C 0.355469 115.480469 0.671875 114.894531 1.042969 114.335938 C 1.414062 113.78125 1.839844 113.265625 2.3125 112.792969 L 111.152344 4.003906 C 111.617188 3.5 112.128906 3.050781 112.6875 2.652344 C 113.246094 2.257812 113.835938 1.917969 114.464844 1.640625 C 115.089844 1.359375 115.734375 1.148438 116.40625 1 C 117.074219 0.851562 117.75 0.769531 118.4375 0.757812 C 119.121094 0.746094 119.800781 0.800781 120.472656 0.925781 C 121.148438 1.050781 121.800781 1.242188 122.4375 1.5 C 123.074219 1.753906 123.675781 2.074219 124.246094 2.449219 C 124.820312 2.828125 125.347656 3.257812 125.832031 3.742188 C 126.316406 4.226562 126.746094 4.753906 127.125 5.328125 C 127.503906 5.898438 127.820312 6.5 128.078125 7.136719 C 128.332031 7.769531 128.523438 8.425781 128.648438 9.097656 C 128.773438 9.773438 128.828125 10.449219 128.816406 11.136719 C 128.804688 11.820312 128.726562 12.496094 128.578125 13.164062 C 128.429688 13.832031 128.214844 14.480469 127.9375 15.105469 C 127.65625 15.730469 127.320312 16.324219 126.921875 16.882812 C 126.523438 17.4375 126.074219 17.949219 125.570312 18.417969 L 23.957031 120 L 125.570312 221.582031 C 126.285156 222.296875 126.878906 223.097656 127.351562 223.984375 C 127.828125 224.875 128.164062 225.8125 128.359375 226.804688 C 128.558594 227.792969 128.605469 228.789062 128.507812 229.789062 C 128.40625 230.792969 128.164062 231.761719 127.78125 232.691406 C 127.394531 233.625 126.882812 234.476562 126.242188 235.257812 C 125.601562 236.039062 124.863281 236.707031 124.023438 237.265625 C 123.1875 237.828125 122.285156 238.253906 121.320312 238.546875 C 120.355469 238.839844 119.371094 238.988281 118.359375 238.988281 Z M 118.359375 238.988281 " fill-opacity="1" fill-rule="nonzero"/></g><path fill="#000000" d="M 281.617188 130.199219 L 9.523438 130.199219 C 8.851562 130.199219 8.191406 130.132812 7.53125 130.003906 C 6.875 129.871094 6.238281 129.679688 5.617188 129.421875 C 5 129.167969 4.410156 128.851562 3.855469 128.480469 C 3.296875 128.109375 2.78125 127.683594 2.308594 127.210938 C 1.835938 126.738281 1.410156 126.222656 1.039062 125.667969 C 0.667969 125.109375 0.351562 124.523438 0.0976562 123.902344 C -0.160156 123.285156 -0.351562 122.648438 -0.484375 121.988281 C -0.613281 121.332031 -0.679688 120.667969 -0.679688 120 C -0.679688 119.332031 -0.613281 118.667969 -0.484375 118.011719 C -0.351562 117.351562 -0.160156 116.714844 0.0976562 116.097656 C 0.351562 115.476562 0.667969 114.890625 1.039062 114.332031 C 1.410156 113.777344 1.835938 113.261719 2.308594 112.789062 C 2.78125 112.316406 3.296875 111.890625 3.855469 111.519531 C 4.410156 111.148438 5 110.832031 5.617188 110.578125 C 6.238281 110.320312 6.875 110.128906 7.53125 109.996094 C 8.191406 109.867188 8.851562 109.800781 9.523438 109.800781 L 281.617188 109.800781 C 282.289062 109.800781 282.953125 109.867188 283.609375 109.996094 C 284.265625 110.128906 284.902344 110.320312 285.523438 110.578125 C 286.140625 110.832031 286.730469 111.148438 287.285156 111.519531 C 287.84375 111.890625 288.359375 112.316406 288.832031 112.789062 C 289.308594 113.261719 289.730469 113.777344 290.101562 114.332031 C 290.472656 114.890625 290.789062 115.476562 291.046875 116.097656 C 291.300781 116.714844 291.496094 117.351562 291.625 118.011719 C 291.757812 118.667969 291.820312 119.332031 291.820312 120 C 291.820312 120.667969 291.757812 121.332031 291.625 121.988281 C 291.496094 122.648438 291.300781 123.285156 291.042969 123.902344 C 290.789062 124.523438 290.472656 125.109375 290.101562 125.667969 C 289.730469 126.222656 289.308594 126.738281 288.832031 127.210938 C 288.359375 127.683594 287.84375 128.109375 287.285156 128.480469 C 286.730469 128.851562 286.140625 129.167969 285.523438 129.421875 C 284.902344 129.679688 284.265625 129.871094 283.609375 130.003906 C 282.953125 130.132812 282.289062 130.199219 281.617188 130.199219 Z M 281.617188 130.199219 " fill-opacity="1" fill-rule="nonzero"/><g clip-path="url(#6ddaf188a2)"><path fill="#000000" d="M 118.359375 238.988281 C 117.007812 238.992188 115.707031 238.734375 114.457031 238.214844 C 113.207031 237.699219 112.105469 236.957031 111.152344 235.996094 L 2.3125 127.207031 C 1.839844 126.734375 1.414062 126.21875 1.042969 125.664062 C 0.671875 125.105469 0.355469 124.519531 0.101562 123.902344 C -0.15625 123.28125 -0.351562 122.644531 -0.480469 121.988281 C -0.613281 121.332031 -0.675781 120.667969 -0.675781 120 C -0.675781 119.332031 -0.613281 118.667969 -0.480469 118.011719 C -0.351562 117.355469 -0.15625 116.71875 0.101562 116.097656 C 0.355469 115.480469 0.671875 114.894531 1.042969 114.335938 C 1.414062 113.78125 1.839844 113.265625 2.3125 112.792969 L 111.152344 4.003906 C 111.617188 3.5 112.128906 3.050781 112.6875 2.652344 C 113.246094 2.257812 113.835938 1.917969 114.464844 1.640625 C 115.089844 1.359375 115.734375 1.148438 116.40625 1 C 117.074219 0.851562 117.75 0.769531 118.4375 0.757812 C 119.121094 0.746094 119.800781 0.800781 120.472656 0.925781 C 121.148438 1.050781 121.800781 1.242188 122.4375 1.5 C 123.074219 1.753906 123.675781 2.074219 124.246094 2.449219 C 124.820312 2.828125 125.347656 3.257812 125.832031 3.742188 C 126.316406 4.226562 126.746094 4.753906 127.125 5.328125 C 127.503906 5.898438 127.820312 6.5 128.078125 7.136719 C 128.332031 7.769531 128.523438 8.425781 128.648438 9.097656 C 128.773438 9.773438 128.828125 10.449219 128.816406 11.136719 C 128.804688 11.820312 128.726562 12.496094 128.578125 13.164062 C 128.429688 13.832031 128.214844 14.480469 127.9375 15.105469 C 127.65625 15.730469 127.320312 16.324219 126.921875 16.882812 C 126.523438 17.4375 126.074219 17.949219 125.570312 18.417969 L 23.957031 120 L 125.570312 221.582031 C 126.285156 222.296875 126.878906 223.097656 127.351562 223.984375 C 127.828125 224.875 128.164062 225.8125 128.359375 226.804688 C 128.558594 227.792969 128.605469 228.789062 128.507812 229.789062 C 128.40625 230.792969 128.164062 231.761719 127.78125 232.691406 C 127.394531 233.625 126.882812 234.476562 126.242188 235.257812 C 125.601562 236.039062 124.863281 236.707031 124.023438 237.265625 C 123.1875 237.828125 122.285156 238.253906 121.320312 238.546875 C 120.355469 238.839844 119.371094 238.988281 118.359375 238.988281 Z M 118.359375 238.988281 " fill-opacity="1" fill-rule="nonzero"/></g></svg>