<svg xmlns="http://www.w3.org/2000/svg" xmlns:xlink="http://www.w3.org/1999/xlink" width="454" zoomAndPan="magnify" viewBox="0 0 340.5 317.999988" height="424" preserveAspectRatio="xMidYMid meet" version="1.0"><defs><clipPath id="5bb72b7dee"><path d="M 0 148 L 292.820312 148 L 292.820312 170 L 0 170 Z M 0 148 " clip-rule="nonzero"/></clipPath><clipPath id="917b2a5cd8"><path d="M 0 39.175781 L 129 39.175781 L 129 278.824219 L 0 278.824219 Z M 0 39.175781 " clip-rule="nonzero"/></clipPath><clipPath id="30eb809038"><path d="M 322 0.234375 L 340 0.234375 L 340 317.765625 L 322 317.765625 Z M 322 0.234375 " clip-rule="nonzero"/></clipPath></defs><g clip-path="url(#5bb72b7dee)"><path fill="#000000" d="M 281.925781 169.210938 L 9.535156 169.210938 C 8.863281 169.210938 8.199219 169.144531 7.539062 169.015625 C 6.882812 168.882812 6.246094 168.691406 5.625 168.433594 C 5.003906 168.175781 4.417969 167.863281 3.859375 167.488281 C 3.300781 167.117188 2.785156 166.695312 2.3125 166.21875 C 1.835938 165.746094 1.414062 165.230469 1.039062 164.671875 C 0.667969 164.113281 0.351562 163.527344 0.0976562 162.90625 C -0.160156 162.289062 -0.355469 161.648438 -0.484375 160.992188 C -0.617188 160.335938 -0.679688 159.671875 -0.679688 159 C -0.679688 158.328125 -0.617188 157.664062 -0.484375 157.007812 C -0.355469 156.351562 -0.160156 155.710938 0.0976562 155.09375 C 0.351562 154.472656 0.667969 153.886719 1.039062 153.328125 C 1.414062 152.769531 1.835938 152.253906 2.3125 151.78125 C 2.785156 151.304688 3.300781 150.882812 3.859375 150.511719 C 4.417969 150.136719 5.003906 149.824219 5.625 149.566406 C 6.246094 149.308594 6.882812 149.117188 7.539062 148.984375 C 8.199219 148.855469 8.863281 148.789062 9.535156 148.789062 L 281.925781 148.789062 C 282.59375 148.789062 283.257812 148.855469 283.917969 148.984375 C 284.574219 149.117188 285.214844 149.308594 285.832031 149.566406 C 286.453125 149.824219 287.042969 150.136719 287.597656 150.511719 C 288.15625 150.882812 288.671875 151.304688 289.148438 151.78125 C 289.621094 152.253906 290.042969 152.769531 290.417969 153.328125 C 290.789062 153.886719 291.105469 154.472656 291.363281 155.09375 C 291.617188 155.710938 291.8125 156.351562 291.941406 157.007812 C 292.074219 157.664062 292.140625 158.328125 292.140625 159 C 292.140625 159.671875 292.074219 160.335938 291.941406 160.992188 C 291.8125 161.648438 291.617188 162.289062 291.363281 162.90625 C 291.105469 163.527344 290.789062 164.113281 290.417969 164.671875 C 290.042969 165.230469 289.621094 165.746094 289.148438 166.21875 C 288.671875 166.695312 288.15625 167.117188 287.597656 167.488281 C 287.042969 167.863281 286.453125 168.175781 285.832031 168.433594 C 285.214844 168.691406 284.574219 168.882812 283.917969 169.015625 C 283.257812 169.144531 282.59375 169.210938 281.925781 169.210938 Z M 281.925781 169.210938 " fill-opacity="1" fill-rule="nonzero"/></g><g clip-path="url(#917b2a5cd8)"><path fill="#000000" d="M 118.488281 278.117188 C 117.136719 278.121094 115.832031 277.863281 114.582031 277.34375 C 113.328125 276.824219 112.226562 276.085938 111.273438 275.125 L 2.316406 166.214844 C 1.839844 165.742188 1.417969 165.226562 1.042969 164.667969 C 0.671875 164.113281 0.355469 163.523438 0.101562 162.90625 C -0.15625 162.285156 -0.351562 161.648438 -0.480469 160.992188 C -0.613281 160.332031 -0.675781 159.671875 -0.675781 159 C -0.675781 158.328125 -0.613281 157.667969 -0.480469 157.007812 C -0.351562 156.351562 -0.15625 155.714844 0.101562 155.09375 C 0.355469 154.476562 0.671875 153.886719 1.042969 153.332031 C 1.417969 152.773438 1.839844 152.257812 2.316406 151.785156 L 111.273438 42.875 C 111.738281 42.375 112.253906 41.925781 112.808594 41.527344 C 113.367188 41.128906 113.960938 40.789062 114.585938 40.511719 C 115.214844 40.230469 115.863281 40.019531 116.53125 39.871094 C 117.199219 39.722656 117.878906 39.640625 118.566406 39.628906 C 119.25 39.617188 119.929688 39.671875 120.605469 39.796875 C 121.277344 39.921875 121.933594 40.113281 122.570312 40.371094 C 123.207031 40.625 123.808594 40.945312 124.382812 41.324219 C 124.953125 41.699219 125.484375 42.132812 125.96875 42.617188 C 126.453125 43.101562 126.882812 43.628906 127.261719 44.203125 C 127.640625 44.773438 127.960938 45.378906 128.214844 46.011719 C 128.472656 46.648438 128.664062 47.304688 128.789062 47.976562 C 128.914062 48.652344 128.96875 49.332031 128.957031 50.015625 C 128.945312 50.703125 128.867188 51.378906 128.714844 52.050781 C 128.566406 52.71875 128.355469 53.367188 128.074219 53.992188 C 127.796875 54.617188 127.457031 55.210938 127.058594 55.769531 C 126.660156 56.328125 126.210938 56.839844 125.707031 57.308594 L 23.984375 159 L 125.707031 260.691406 C 126.421875 261.40625 127.015625 262.210938 127.492188 263.097656 C 127.96875 263.988281 128.304688 264.929688 128.5 265.917969 C 128.695312 266.910156 128.746094 267.90625 128.644531 268.910156 C 128.546875 269.914062 128.304688 270.882812 127.917969 271.8125 C 127.53125 272.746094 127.019531 273.601562 126.378906 274.382812 C 125.738281 275.164062 125 275.832031 124.160156 276.394531 C 123.320312 276.957031 122.417969 277.382812 121.453125 277.675781 C 120.488281 277.96875 119.5 278.117188 118.488281 278.117188 Z M 118.488281 278.117188 " fill-opacity="1" fill-rule="nonzero"/></g><g clip-path="url(#30eb809038)"><path stroke-linecap="round" transform="matrix(0, 0.7489, -0.7489, 0, 339.986999, 0.671942)" fill="none" stroke-linejoin="miter" d="M 12.001885 12.000262 L 410.841919 12.000262 " stroke="#000000" stroke-width="24" stroke-opacity="1" stroke-miterlimit="4"/></g></svg>