<svg xmlns="http://www.w3.org/2000/svg" xmlns:xlink="http://www.w3.org/1999/xlink" width="332" zoomAndPan="magnify" viewBox="0 0 249 240.749995" height="321" preserveAspectRatio="xMidYMid meet" version="1.0"><defs><clipPath id="7d513f4bbd"><path d="M 0.582031 0.0429688 L 248.578125 0.0429688 L 248.578125 239.792969 L 0.582031 239.792969 Z M 0.582031 0.0429688 " clip-rule="nonzero"/></clipPath></defs><g clip-path="url(#7d513f4bbd)"><path fill="#000a05" d="M 59.070312 239.582031 C 58.421875 239.582031 57.773438 239.421875 57.1875 239.097656 C 55.945312 238.410156 55.171875 237.101562 55.171875 235.683594 L 55.171875 194.152344 L 36.0625 194.152344 C 16.5 194.152344 0.582031 178.234375 0.582031 158.667969 L 0.582031 35.734375 C 0.582031 16.167969 16.5 0.25 36.0625 0.25 L 212.941406 0.25 C 232.507812 0.25 248.425781 16.167969 248.425781 35.734375 L 248.425781 158.667969 C 248.425781 178.234375 232.507812 194.152344 212.941406 194.152344 L 132.378906 194.152344 C 108.632812 209.097656 84.890625 224.042969 61.144531 238.984375 C 60.511719 239.382812 59.792969 239.582031 59.070312 239.582031 Z M 36.0625 8.046875 C 20.796875 8.046875 8.378906 20.46875 8.378906 35.734375 L 8.378906 158.667969 C 8.378906 173.9375 20.796875 186.359375 36.0625 186.359375 L 59.070312 186.359375 C 61.222656 186.359375 62.96875 188.101562 62.96875 190.253906 L 62.96875 228.628906 C 85.039062 214.738281 107.105469 200.851562 129.179688 186.957031 C 129.800781 186.566406 130.519531 186.359375 131.253906 186.359375 L 212.941406 186.359375 C 228.210938 186.359375 240.632812 173.9375 240.632812 158.667969 L 240.632812 35.734375 C 240.632812 20.46875 228.210938 8.046875 212.941406 8.046875 Z M 36.0625 8.046875 " fill-opacity="1" fill-rule="nonzero"/><path fill="#000a05" d="M 59.070312 239.582031 C 58.421875 239.582031 57.773438 239.421875 57.1875 239.097656 C 55.945312 238.410156 55.171875 237.101562 55.171875 235.683594 L 55.171875 194.152344 L 36.0625 194.152344 C 16.5 194.152344 0.582031 178.234375 0.582031 158.667969 L 0.582031 35.734375 C 0.582031 16.167969 16.5 0.25 36.0625 0.25 L 212.941406 0.25 C 232.507812 0.25 248.425781 16.167969 248.425781 35.734375 L 248.425781 158.667969 C 248.425781 178.234375 232.507812 194.152344 212.941406 194.152344 L 132.378906 194.152344 C 108.632812 209.097656 84.890625 224.042969 61.144531 238.984375 C 60.511719 239.382812 59.792969 239.582031 59.070312 239.582031 Z M 36.0625 8.046875 C 20.796875 8.046875 8.378906 20.46875 8.378906 35.734375 L 8.378906 158.667969 C 8.378906 173.9375 20.796875 186.359375 36.0625 186.359375 L 59.070312 186.359375 C 61.222656 186.359375 62.96875 188.101562 62.96875 190.253906 L 62.96875 228.628906 C 85.039062 214.738281 107.105469 200.851562 129.179688 186.957031 C 129.800781 186.566406 130.519531 186.359375 131.253906 186.359375 L 212.941406 186.359375 C 228.210938 186.359375 240.632812 173.9375 240.632812 158.667969 L 240.632812 35.734375 C 240.632812 20.46875 228.210938 8.046875 212.941406 8.046875 Z M 36.0625 8.046875 " fill-opacity="1" fill-rule="nonzero"/></g></svg>