<svg xmlns="http://www.w3.org/2000/svg" xmlns:xlink="http://www.w3.org/1999/xlink" width="1280" zoomAndPan="magnify" viewBox="0 0 960 599.999999" height="800" preserveAspectRatio="xMidYMid meet" version="1.0"><defs><clipPath id="787aa7c190"><path d="M 99 92.304688 L 860.910156 92.304688 L 860.910156 507.804688 L 99 507.804688 Z M 99 92.304688 " clip-rule="nonzero"/></clipPath></defs><g clip-path="url(#787aa7c190)"><path fill="#000000" d="M 850.484375 497.695312 C 844.21875 503.960938 835.566406 507.875 825.980469 507.875 C 816.394531 507.875 807.742188 503.996094 801.480469 497.695312 L 479.910156 175.890625 L 158.339844 497.695312 C 152.074219 503.960938 143.386719 507.839844 133.835938 507.839844 C 114.699219 507.839844 99.195312 492.328125 99.195312 473.179688 C 99.195312 463.625 103.070312 454.933594 109.335938 448.664062 L 455.40625 102.414062 C 461.671875 96.148438 470.324219 92.234375 479.910156 92.234375 C 489.496094 92.234375 498.148438 96.113281 504.410156 102.414062 L 850.484375 448.664062 C 856.746094 454.933594 860.65625 463.589844 860.65625 473.179688 C 860.65625 482.769531 856.78125 491.425781 850.484375 497.695312 Z M 850.484375 497.695312 " fill-opacity="1" fill-rule="nonzero"/></g></svg>