<svg xmlns="http://www.w3.org/2000/svg" xmlns:xlink="http://www.w3.org/1999/xlink" width="1280" zoomAndPan="magnify" viewBox="0 0 960 599.999999" height="800" preserveAspectRatio="xMidYMid meet" version="1.0"><path fill="#040606" d="M 428.0625 443.117188 C 442.042969 443.117188 456.210938 443.183594 470.253906 443.558594 L 470.566406 443.558594 C 482.792969 443.996094 494.578125 448.070312 504.417969 455.277344 L 505.046875 455.714844 C 520.84375 467.996094 536.578125 480.71875 551.875 493.003906 C 567.109375 505.285156 582.46875 517.753906 597.953125 529.789062 C 608.109375 537.621094 617.761719 543.386719 626.601562 546.832031 C 629.488281 547.960938 633.75 549.089844 636.882812 547.648438 C 639.640625 546.332031 642.210938 542.632812 643.90625 537.496094 L 643.96875 537.496094 C 646.164062 530.976562 647.480469 524.085938 647.855469 517.191406 C 648.734375 500.648438 648.859375 483.601562 648.230469 466.746094 C 647.480469 447.253906 655.941406 432.839844 673.496094 424.003906 C 750.101562 384.902344 790.414062 312.960938 783.832031 226.667969 C 776.808594 136.613281 702.773438 59.722656 615.320312 51.574219 C 613.0625 51.324219 610.992188 51.136719 608.988281 51.011719 C 570.246094 51.136719 530.9375 51.136719 492.882812 51.136719 C 469 51.136719 420.980469 51.136719 367.378906 51.011719 C 349.574219 51.886719 341.550781 52.703125 339.796875 53.015625 L 339.480469 53.015625 C 237.109375 70.9375 165.703125 173.714844 183.632812 277.425781 C 200.496094 376.066406 278.984375 442.617188 378.851562 443.117188 Z M 633.5 599.535156 C 624.785156 599.410156 616.195312 597.71875 608.109375 594.523438 C 594.566406 589.257812 580.652344 581.113281 566.546875 570.207031 C 550.746094 557.863281 535.011719 545.140625 519.714844 532.859375 C 504.734375 520.765625 489.3125 508.292969 474.015625 496.386719 C 472.449219 495.382812 470.628906 494.757812 468.8125 494.695312 C 449 494.191406 428.691406 494.253906 409.066406 494.316406 L 378.539062 494.316406 C 317.351562 494.003906 261.496094 473.824219 216.921875 436.039062 C 172.410156 398.3125 143.449219 346.613281 133.042969 286.261719 C 122.070312 222.53125 136.554688 157.734375 173.855469 103.964844 C 211.34375 49.882812 266.949219 13.914062 330.390625 2.820312 C 335.90625 1.816406 347.757812 0.816406 365.433594 0.0625 L 366.6875 0.0625 C 420.476562 0.125 468.75 0.1875 492.820312 0.1875 C 531 0.1875 570.496094 0.1875 609.363281 0.0625 L 610.617188 0.0625 C 614.066406 0.1875 617.261719 0.5 620.019531 0.753906 C 675 5.890625 727.222656 31.585938 767.027344 73.132812 C 806.398438 114.179688 830.472656 167.382812 834.796875 222.84375 C 838.808594 275.359375 828.339844 325.492188 804.644531 367.980469 C 781.324219 409.78125 745.023438 444.308594 699.449219 468.1875 C 700.011719 485.542969 699.824219 502.902344 698.949219 520.011719 C 698.320312 531.542969 696.0625 542.949219 692.425781 553.914062 C 686.097656 572.527344 674.058594 586.753906 658.511719 594.085938 C 650.675781 597.71875 642.148438 599.535156 633.5 599.535156 " fill-opacity="1" fill-rule="nonzero"/></svg>