<svg xmlns="http://www.w3.org/2000/svg" xmlns:xlink="http://www.w3.org/1999/xlink" width="1280" zoomAndPan="magnify" viewBox="0 0 960 599.999999" height="800" preserveAspectRatio="xMidYMid meet" version="1.0"><defs><clipPath id="4f4b63c101"><path d="M 99.085938 92.1875 L 861 92.1875 L 861 507.6875 L 99.085938 507.6875 Z M 99.085938 92.1875 " clip-rule="nonzero"/></clipPath></defs><g clip-path="url(#4f4b63c101)"><path fill="#000000" d="M 109.511719 102.296875 C 115.773438 96.03125 124.425781 92.117188 134.011719 92.117188 C 143.597656 92.117188 152.25 95.996094 158.515625 102.296875 L 480.085938 424.101562 L 801.65625 102.296875 C 807.917969 96.03125 816.605469 92.152344 826.15625 92.152344 C 845.296875 92.152344 860.800781 107.664062 860.800781 126.8125 C 860.800781 136.371094 856.921875 145.0625 850.660156 151.328125 L 504.585938 497.578125 C 498.324219 503.84375 489.671875 507.757812 480.085938 507.757812 C 470.5 507.757812 461.847656 503.878906 455.582031 497.578125 L 109.511719 151.328125 C 103.246094 145.0625 99.335938 136.40625 99.335938 126.8125 C 99.335938 117.222656 103.210938 108.566406 109.511719 102.296875 Z M 109.511719 102.296875 " fill-opacity="1" fill-rule="nonzero"/></g></svg>