<svg xmlns="http://www.w3.org/2000/svg" xmlns:xlink="http://www.w3.org/1999/xlink" width="226" zoomAndPan="magnify" viewBox="0 0 169.5 239.999995" height="320" preserveAspectRatio="xMidYMid meet" version="1.0"><defs><clipPath id="026d379547"><path d="M 0.34375 0.351562 L 168.597656 0.351562 L 168.597656 239.640625 L 0.34375 239.640625 Z M 0.34375 0.351562 " clip-rule="nonzero"/></clipPath><clipPath id="bbdbe3a302"><path d="M 17.78125 0.351562 L 151.945312 0.351562 L 151.945312 234.996094 L 17.78125 234.996094 Z M 17.78125 0.351562 " clip-rule="nonzero"/></clipPath><clipPath id="8c4d4c5ced"><path d="M 84.863281 234.996094 L 151.945312 160.710938 L 114.800781 160.710938 L 114.800781 0.351562 L 54.925781 0.351562 L 54.925781 160.710938 L 17.78125 160.710938 Z M 84.863281 234.996094 " clip-rule="nonzero"/></clipPath><clipPath id="6f17184982"><path d="M 5.03125 141.523438 L 162.386719 141.523438 L 162.386719 234.984375 L 5.03125 234.984375 Z M 5.03125 141.523438 " clip-rule="nonzero"/></clipPath><clipPath id="ee31ff6c67"><path d="M 83.863281 234.984375 L 5.339844 141.523438 L 162.386719 141.523438 Z M 83.863281 234.984375 " clip-rule="nonzero"/></clipPath></defs><g clip-path="url(#026d379547)"><path fill="#003470" d="M 84.195312 8.496094 L 56.074219 8.496094 L 56.074219 141.453125 C 56.074219 143.671875 54.273438 145.472656 52.058594 145.472656 L 12.957031 145.472656 L 84.195312 228.882812 L 155.433594 145.472656 L 116.332031 145.472656 C 114.113281 145.472656 112.316406 143.671875 112.316406 141.453125 L 112.316406 8.496094 Z M 52.058594 0.460938 L 116.332031 0.460938 C 118.550781 0.460938 120.347656 2.261719 120.347656 4.480469 L 120.347656 137.4375 L 164.132812 137.4375 L 164.132812 137.445312 C 165.054688 137.445312 165.980469 137.765625 166.734375 138.40625 C 168.414062 139.847656 168.613281 142.378906 167.171875 144.054688 L 87.273438 237.605469 C 87.128906 237.777344 86.972656 237.941406 86.796875 238.085938 C 85.117188 239.527344 82.585938 239.328125 81.148438 237.648438 L 1.402344 144.277344 C 0.683594 143.554688 0.242188 142.558594 0.242188 141.453125 C 0.242188 139.238281 2.039062 137.4375 4.257812 137.4375 L 48.039062 137.4375 L 48.039062 4.480469 C 48.039062 2.257812 49.839844 0.460938 52.058594 0.460938 Z M 52.058594 0.460938 " fill-opacity="1" fill-rule="evenodd"/></g><g clip-path="url(#bbdbe3a302)"><g clip-path="url(#8c4d4c5ced)"><path fill="#003470" d="M 151.945312 234.996094 L 17.78125 234.996094 L 17.78125 0.214844 L 151.945312 0.214844 Z M 151.945312 234.996094 " fill-opacity="1" fill-rule="nonzero"/></g></g><g clip-path="url(#6f17184982)"><g clip-path="url(#ee31ff6c67)"><path fill="#003470" d="M 162.386719 234.984375 L 5.398438 234.984375 L 5.398438 141.523438 L 162.386719 141.523438 Z M 162.386719 234.984375 " fill-opacity="1" fill-rule="nonzero"/></g></g></svg>