<svg xmlns="http://www.w3.org/2000/svg" xmlns:xlink="http://www.w3.org/1999/xlink" width="227" zoomAndPan="magnify" viewBox="0 0 170.25 240.749997" height="321" preserveAspectRatio="xMidYMid meet" version="1.0"><defs><clipPath id="75254bdba4"><path d="M 0.878906 0.441406 L 168.890625 0.441406 L 168.890625 239 L 0.878906 239 Z M 0.878906 0.441406 " clip-rule="nonzero"/></clipPath><clipPath id="9d46ea8a09"><path d="M 0.902344 0.441406 L 168.910156 0.441406 L 168.910156 239 L 0.902344 239 Z M 0.902344 0.441406 " clip-rule="nonzero"/></clipPath></defs><g clip-path="url(#75254bdba4)"><path fill="#003470" d="M 84.609375 8.574219 L 56.527344 8.574219 L 56.527344 141.339844 C 56.527344 143.554688 54.730469 145.351562 52.515625 145.351562 L 13.472656 145.351562 L 84.609375 228.640625 L 155.742188 145.351562 L 116.699219 145.351562 C 114.484375 145.351562 112.6875 143.554688 112.6875 141.339844 L 112.6875 8.574219 Z M 52.515625 0.554688 L 116.699219 0.554688 C 118.914062 0.554688 120.710938 2.351562 120.710938 4.566406 L 120.710938 137.328125 L 164.429688 137.328125 L 164.429688 137.339844 C 165.351562 137.339844 166.273438 137.65625 167.027344 138.300781 C 168.703125 139.738281 168.90625 142.261719 167.464844 143.9375 L 87.679688 237.355469 C 87.539062 237.523438 87.382812 237.6875 87.207031 237.835938 C 85.53125 239.273438 83 239.074219 81.566406 237.398438 L 1.933594 144.160156 C 1.21875 143.4375 0.777344 142.441406 0.777344 141.339844 C 0.777344 139.125 2.574219 137.328125 4.789062 137.328125 L 48.507812 137.328125 L 48.507812 4.566406 C 48.507812 2.34375 50.304688 0.554688 52.515625 0.554688 Z M 52.515625 0.554688 " fill-opacity="1" fill-rule="evenodd"/></g><g clip-path="url(#9d46ea8a09)"><path fill="#000a05" d="M 84.628906 8.574219 L 56.550781 8.574219 L 56.550781 141.339844 C 56.550781 143.554688 54.753906 145.351562 52.539062 145.351562 L 13.496094 145.351562 L 84.628906 228.640625 L 155.765625 145.351562 L 116.722656 145.351562 C 114.507812 145.351562 112.710938 143.554688 112.710938 141.339844 L 112.710938 8.574219 Z M 52.539062 0.554688 L 116.722656 0.554688 C 118.933594 0.554688 120.730469 2.351562 120.730469 4.566406 L 120.730469 137.328125 L 164.449219 137.328125 L 164.449219 137.339844 C 165.375 137.339844 166.296875 137.65625 167.050781 138.300781 C 168.726562 139.738281 168.925781 142.261719 167.488281 143.9375 L 87.703125 237.355469 C 87.5625 237.523438 87.402344 237.6875 87.230469 237.835938 C 85.550781 239.273438 83.023438 239.074219 81.589844 237.398438 L 1.957031 144.160156 C 1.242188 143.4375 0.796875 142.441406 0.796875 141.339844 C 0.796875 139.125 2.59375 137.328125 4.808594 137.328125 L 48.527344 137.328125 L 48.527344 4.566406 C 48.527344 2.34375 50.324219 0.554688 52.539062 0.554688 Z M 52.539062 0.554688 " fill-opacity="1" fill-rule="evenodd"/></g></svg>