<svg xmlns="http://www.w3.org/2000/svg" xmlns:xlink="http://www.w3.org/1999/xlink" width="226" zoomAndPan="magnify" viewBox="0 0 169.5 239.999995" height="320" preserveAspectRatio="xMidYMid meet" version="1.0"><defs><clipPath id="20259a7d4f"><path d="M 0.425781 0.351562 L 168.679688 0.351562 L 168.679688 239.640625 L 0.425781 239.640625 Z M 0.425781 0.351562 " clip-rule="nonzero"/></clipPath><clipPath id="33e4a20de9"><path d="M 0.445312 0.351562 L 168.699219 0.351562 L 168.699219 239.640625 L 0.445312 239.640625 Z M 0.445312 0.351562 " clip-rule="nonzero"/></clipPath></defs><g clip-path="url(#20259a7d4f)"><path fill="#003470" d="M 84.277344 8.496094 L 56.15625 8.496094 L 56.15625 141.453125 C 56.15625 143.671875 54.355469 145.472656 52.140625 145.472656 L 13.039062 145.472656 L 84.277344 228.882812 L 155.515625 145.472656 L 116.414062 145.472656 C 114.195312 145.472656 112.398438 143.671875 112.398438 141.453125 L 112.398438 8.496094 Z M 52.140625 0.460938 L 116.414062 0.460938 C 118.628906 0.460938 120.429688 2.261719 120.429688 4.480469 L 120.429688 137.4375 L 164.214844 137.4375 L 164.214844 137.445312 C 165.136719 137.445312 166.0625 137.765625 166.816406 138.40625 C 168.496094 139.847656 168.695312 142.378906 167.253906 144.054688 L 87.355469 237.605469 C 87.210938 237.777344 87.054688 237.941406 86.878906 238.085938 C 85.199219 239.527344 82.667969 239.328125 81.230469 237.648438 L 1.484375 144.277344 C 0.765625 143.554688 0.320312 142.558594 0.320312 141.453125 C 0.320312 139.238281 2.121094 137.4375 4.339844 137.4375 L 48.121094 137.4375 L 48.121094 4.480469 C 48.121094 2.257812 49.921875 0.460938 52.140625 0.460938 Z M 52.140625 0.460938 " fill-opacity="1" fill-rule="evenodd"/></g><g clip-path="url(#33e4a20de9)"><path fill="#003470" d="M 84.296875 8.496094 L 56.179688 8.496094 L 56.179688 141.453125 C 56.179688 143.671875 54.378906 145.472656 52.160156 145.472656 L 13.0625 145.472656 L 84.296875 228.882812 L 155.535156 145.472656 L 116.433594 145.472656 C 114.21875 145.472656 112.417969 143.671875 112.417969 141.453125 L 112.417969 8.496094 Z M 52.160156 0.460938 L 116.433594 0.460938 C 118.652344 0.460938 120.453125 2.261719 120.453125 4.480469 L 120.453125 137.4375 L 164.234375 137.4375 L 164.234375 137.445312 C 165.160156 137.445312 166.082031 137.765625 166.835938 138.40625 C 168.515625 139.847656 168.714844 142.378906 167.277344 144.054688 L 87.375 237.605469 C 87.234375 237.777344 87.074219 237.941406 86.902344 238.085938 C 85.222656 239.527344 82.6875 239.328125 81.253906 237.648438 L 1.503906 144.277344 C 0.789062 143.554688 0.34375 142.558594 0.34375 141.453125 C 0.34375 139.238281 2.144531 137.4375 4.359375 137.4375 L 48.144531 137.4375 L 48.144531 4.480469 C 48.144531 2.257812 49.945312 0.460938 52.160156 0.460938 Z M 52.160156 0.460938 " fill-opacity="1" fill-rule="evenodd"/></g></svg>