<?xml version="1.0" standalone="no"?>
<!DOCTYPE svg PUBLIC "-//W3C//DTD SVG 20010904//EN"
 "http://www.w3.org/TR/2001/REC-SVG-20010904/DTD/svg10.dtd">
<svg version="1.0" xmlns="http://www.w3.org/2000/svg"
 width="800.000000pt" height="800.000000pt" viewBox="0 0 800.000000 800.000000"
 preserveAspectRatio="xMidYMid meet">

<g transform="translate(0.000000,800.000000) scale(0.100000,-0.100000)"
fill="#000000" stroke="none">
<path d="M1307 7143 c-67 -4 -68 -4 -102 -51 -34 -46 -44 -77 -26 -84 5 -1 49
-70 98 -153 134 -226 155 -265 150 -278 -3 -7 -28 -25 -56 -40 l-51 -28 -31
68 c-17 37 -44 101 -61 141 -70 169 -64 182 -70 -159 -2 -167 -6 -1474 -7
-2904 -2 -1883 0 -2611 8 -2641 14 -51 80 -128 135 -156 35 -19 61 -22 181
-25 298 -7 1760 -21 1766 -17 4 2 -16 57 -43 121 -27 65 -54 129 -60 143 -5
14 -44 106 -86 205 l-77 180 -150 5 c-155 6 -200 16 -243 57 -10 10 -40 35
-65 56 -35 28 -56 58 -87 124 l-41 86 4 971 c4 1097 -2 1024 85 1131 57 71
138 129 205 145 33 9 149 11 390 9 l342 -4 22 125 c31 180 70 461 89 640 14
131 15 207 8 485 -5 182 -9 382 -8 445 0 115 0 115 45 210 l44 95 0 120 0 120
-200 5 c-220 6 -232 9 -293 72 -24 26 -35 48 -41 88 -15 94 20 172 97 218 45
26 53 27 215 30 118 3 167 7 167 15 0 34 -45 159 -64 176 -35 32 -315 114
-551 160 -175 34 -239 44 -475 72 -149 18 -242 21 -635 24 -253 1 -490 0 -528
-2z m1611 -970 c12 -23 46 -203 71 -373 52 -353 64 -452 65 -535 1 -90 1 -90
-25 -93 -14 -2 -35 5 -47 15 -18 16 -24 50 -57 353 -19 184 -42 394 -50 465
-21 180 -20 185 10 185 13 0 28 -8 33 -17z m-1400 -2550 c49 -37 67 -71 67
-128 0 -60 -20 -95 -75 -132 -111 -76 -264 49 -221 180 13 38 53 80 91 96 35
15 108 7 138 -16z m7 -337 c63 -49 82 -129 44 -195 -28 -49 -63 -73 -115 -79
-54 -6 -96 11 -134 54 -50 58 -49 144 4 203 50 56 140 63 201 17z m-29 -315
c86 -39 117 -135 71 -214 -56 -96 -177 -104 -250 -18 -61 72 -35 184 53 229
53 27 73 27 126 3z m0 -330 c143 -65 113 -271 -42 -289 -117 -13 -204 103
-156 210 22 50 38 65 89 84 50 17 61 17 109 -5z m18 -340 c46 -25 69 -64 73
-123 5 -62 -17 -106 -69 -138 -115 -70 -263 41 -228 170 28 103 130 144 224
91z m-10 -321 c110 -53 117 -207 14 -270 -121 -74 -277 57 -223 187 39 94 121
126 209 83z m0 -330 c57 -28 79 -63 84 -130 4 -65 -18 -108 -70 -140 -40 -24
-107 -26 -151 -5 -81 39 -108 157 -53 229 49 64 119 81 190 46z m44 -364 c39
-41 42 -49 42 -98 0 -96 -61 -158 -155 -158 -60 0 -99 23 -132 77 -66 110 21
241 152 228 43 -4 56 -10 93 -49z"/>
<path d="M1385 3610 c-4 -6 15 -10 50 -10 35 0 54 4 50 10 -3 6 -26 10 -50 10
-24 0 -47 -4 -50 -10z"/>
<path d="M1508 3531 c2 -36 8 -70 13 -75 5 -6 9 -19 9 -30 1 -19 2 -19 15 4
27 48 15 133 -23 157 -15 9 -17 4 -14 -56z"/>
<path d="M1327 3561 c-20 -34 -22 -89 -5 -126 12 -26 34 -36 24 -10 -3 8 0 20
7 26 13 12 11 139 -2 139 -4 0 -14 -13 -24 -29z"/>
<path d="M1390 3535 c0 -26 4 -35 18 -36 9 -1 31 -2 48 -4 29 -2 31 0 28 27
-5 43 -11 48 -55 48 -38 0 -39 -1 -39 -35z"/>
<path d="M1370 3430 c0 -5 20 -10 45 -10 25 0 45 5 45 10 0 6 -20 10 -45 10
-25 0 -45 -4 -45 -10z"/>
<path d="M1490 3430 c0 -5 5 -10 11 -10 5 0 7 5 4 10 -3 6 -8 10 -11 10 -2 0
-4 -4 -4 -10z"/>
<path d="M1374 3385 c11 -8 38 -15 61 -15 23 0 50 7 61 15 17 13 11 14 -61 14
-72 0 -78 -1 -61 -14z"/>
<path d="M1349 3251 c-34 -33 -39 -45 -39 -83 0 -24 6 -52 13 -63 13 -17 15
-16 25 15 7 18 12 57 12 86 l0 54 75 0 75 0 0 -47 c0 -27 6 -68 14 -93 12 -41
14 -43 24 -23 17 32 15 101 -5 134 -21 35 -69 59 -118 59 -30 0 -45 -8 -76
-39z"/>
<path d="M1390 3206 c0 -22 5 -24 48 -28 47 -3 48 -3 44 25 -4 25 -8 27 -48
27 -40 0 -44 -2 -44 -24z"/>
<path d="M1377 3144 c-4 -4 -7 -13 -7 -21 0 -9 18 -13 66 -13 57 0 65 2 62 18
-2 13 -15 18 -58 20 -31 2 -59 0 -63 -4z"/>
<path d="M1365 3060 c11 -17 69 -27 105 -17 66 17 56 27 -29 27 -51 0 -80 -4
-76 -10z"/>
<path d="M1374 2941 c-44 -27 -64 -59 -64 -104 0 -92 77 -150 166 -126 52 15
84 61 84 120 0 42 -5 55 -33 85 -42 46 -104 56 -153 25z m155 -45 c15 -10 14
-109 -1 -124 -20 -20 -163 -16 -183 5 -21 20 -16 110 6 124 15 10 160 6 178
-5z"/>
<path d="M1355 2846 c-8 -50 -2 -66 24 -66 15 0 17 9 17 55 -1 44 -4 55 -18
55 -12 0 -19 -12 -23 -44z"/>
<path d="M1410 2864 c-6 -14 -10 -31 -10 -38 0 -21 26 -49 39 -42 9 6 9 11 -1
23 -10 13 -9 18 10 33 30 25 29 50 -3 50 -18 0 -28 -7 -35 -26z"/>
<path d="M1480 2847 c-35 -16 -42 -29 -24 -47 13 -13 16 -13 23 -1 5 8 7 21 3
29 -3 10 -1 13 6 8 7 -4 10 -17 6 -32 -5 -18 -2 -24 10 -24 12 0 16 9 16 34 0
42 -7 47 -40 33z"/>
<path d="M1370 2608 c-63 -43 -79 -117 -37 -179 45 -68 148 -72 201 -8 20 24
26 41 26 80 0 42 -5 55 -33 85 -44 48 -105 57 -157 22z m113 -36 c25 -27 49
-91 42 -112 -3 -10 -12 -23 -20 -30 -11 -9 -17 -6 -31 15 -15 23 -15 31 -4 66
15 45 6 59 -36 59 -36 0 -48 -23 -33 -65 10 -26 10 -41 3 -53 -18 -27 -43 -26
-56 3 -10 22 -9 32 7 63 10 20 26 45 34 55 19 22 73 22 94 -1z"/>
<path d="M1364 2496 c-7 -20 2 -46 16 -46 13 0 13 47 0 55 -6 3 -13 -1 -16 -9z"/>
<path d="M1480 2481 c0 -21 5 -31 16 -31 11 0 14 8 12 27 -4 39 -28 42 -28 4z"/>
<path d="M1368 2275 c-67 -46 -73 -138 -13 -195 27 -26 103 -38 131 -21 15 8
7 10 -41 11 -34 0 -66 5 -73 12 -7 7 -12 44 -12 94 0 102 7 110 87 98 55 -9
58 -10 64 -44 4 -19 6 -64 5 -99 l-3 -64 24 27 c31 36 32 112 2 150 -46 59
-112 71 -171 31z"/>
<path d="M1445 2243 c-16 -3 -34 -8 -40 -13 -8 -7 -11 -41 -6 -80 0 -5 19 -10
41 -10 38 0 40 1 40 33 0 17 3 42 6 55 4 12 2 21 -2 21 -5 -1 -22 -4 -39 -6z"/>
<path d="M1386 2122 c-13 -12 -5 -22 19 -22 14 0 25 4 25 9 0 10 -36 21 -44
13z"/>
<path d="M1481 2114 c0 -11 3 -14 6 -6 3 7 2 16 -1 19 -3 4 -6 -2 -5 -13z"/>
<path d="M1383 1955 c-50 -21 -82 -87 -69 -139 6 -26 52 -86 66 -86 4 0 5 15
1 33 -3 17 -4 59 -1 92 5 57 6 60 38 70 21 6 32 15 32 27 0 21 -23 23 -67 3z"/>
<path d="M1495 1840 c0 -60 3 -110 7 -110 3 0 18 14 32 31 37 43 37 115 0 158
-14 17 -29 31 -32 31 -4 0 -7 -49 -7 -110z"/>
<path d="M1422 1881 c-20 -12 -10 -46 13 -46 14 0 20 7 20 24 0 27 -13 35 -33
22z"/>
<path d="M1400 1810 c0 -5 5 -10 10 -10 6 0 10 5 10 10 0 6 -4 10 -10 10 -5 0
-10 -4 -10 -10z"/>
<path d="M1440 1816 c0 -9 30 -14 35 -6 4 6 -3 10 -14 10 -12 0 -21 -2 -21 -4z"/>
<path d="M1403 1760 c4 -16 67 -27 67 -12 0 5 -12 8 -27 6 -15 -1 -31 3 -36 9
-6 8 -7 7 -4 -3z"/>
<path d="M1400 1630 c-22 -7 -23 -8 -4 -9 24 -1 50 -27 56 -56 3 -16 13 -21
56 -25 59 -6 64 2 31 44 -38 48 -84 64 -139 46z"/>
<path d="M1335 1584 c-55 -84 1 -194 99 -194 41 0 106 31 106 50 0 13 -87 13
-95 0 -3 -5 -25 -10 -48 -10 -37 0 -45 4 -60 30 -10 17 -15 35 -12 40 7 11 33
110 30 110 -2 0 -10 -12 -20 -26z"/>
<path d="M1376 1535 c-3 -9 1 -18 10 -22 19 -7 39 11 30 26 -10 16 -33 13 -40
-4z"/>
<path d="M1470 1495 c0 -21 5 -25 29 -25 17 0 31 6 35 16 9 23 -2 34 -35 34
-24 0 -29 -4 -29 -25z"/>
<path d="M1370 1463 c0 -7 11 -13 24 -13 36 0 41 17 6 22 -20 3 -30 0 -30 -9z"/>
<path d="M1380 1293 l-35 -17 90 -6 c50 -3 92 -5 93 -4 2 2 -7 10 -21 19 -38
24 -87 28 -127 8z"/>
<path d="M1540 1192 c0 -35 -5 -73 -11 -85 -10 -21 -9 -21 10 2 23 25 29 103
11 131 -7 11 -10 -4 -10 -48z"/>
<path d="M1316 1217 c-11 -36 0 -91 21 -108 14 -12 16 -12 7 1 -5 8 -11 42
-14 75 -5 51 -7 56 -14 32z"/>
<path d="M1369 1225 c-1 -3 -1 -14 -1 -25 0 -11 0 -24 1 -30 1 -6 30 -10 65
-10 58 0 64 2 68 23 8 41 0 47 -68 47 -35 0 -64 -2 -65 -5z"/>
<path d="M1360 1142 c0 -12 83 -14 112 -3 18 8 8 10 -44 10 -38 1 -68 -3 -68
-7z"/>
<path d="M1500 1139 c0 -5 5 -7 10 -4 6 3 10 8 10 11 0 2 -4 4 -10 4 -5 0 -10
-5 -10 -11z"/>
<path d="M1374 1075 c20 -15 74 -19 114 -9 46 13 19 24 -55 24 -71 -1 -76 -2
-59 -15z"/>
<path d="M4746 6114 c-19 -18 -19 -20 -6 -45 14 -25 56 -25 70 1 23 44 -29 80
-64 44z"/>
<path d="M5783 6054 c-35 -28 -48 -45 -41 -52 6 -6 10 -55 9 -114 -1 -66 3
-112 12 -128 13 -26 65 -47 92 -36 14 5 14 8 0 30 -12 19 -15 47 -13 137 3
111 3 113 28 120 l25 7 -27 1 c-24 1 -27 5 -30 39 l-3 38 -52 -42z"/>
<path d="M4337 5998 c11 -30 10 -348 -1 -370 -7 -16 -2 -18 45 -18 l54 0 0
205 0 205 -53 0 c-51 0 -53 -1 -45 -22z"/>
<path d="M4555 5982 l0 -38 42 30 c23 17 42 34 42 39 1 4 -18 7 -42 7 l-42 0
0 -38z"/>
<path d="M4732 5983 c11 -40 6 -215 -7 -246 -7 -16 -2 -18 45 -15 l52 3 -1
139 c-1 77 -4 143 -7 148 -3 4 -25 8 -49 8 l-43 0 10 -37z"/>
<path d="M4905 5870 l0 -151 44 3 43 3 0 135 c0 74 -1 141 -1 148 -1 7 -17 12
-43 12 l-43 0 0 -150z"/>
<path d="M5071 5999 c7 -14 10 -67 7 -150 l-3 -129 49 0 48 0 -4 131 c-4 123
-5 133 -27 150 -13 11 -36 19 -52 19 -27 0 -29 -2 -18 -21z"/>
<path d="M5256 5999 c-40 -31 -56 -71 -56 -139 0 -89 32 -140 89 -140 18 0 19
2 4 30 -11 23 -14 55 -11 133 2 56 8 110 12 120 11 23 -5 22 -38 -4z"/>
<path d="M5403 6012 l-33 -3 -2 -112 c-1 -62 0 -137 1 -168 2 -33 -4 -70 -13
-92 -17 -42 -13 -44 31 -17 55 33 67 62 70 169 2 53 5 124 6 158 3 68 0 71
-60 65z"/>
<path d="M6195 5870 l0 -150 48 0 48 0 -3 148 -3 147 -45 3 -45 3 0 -151z"/>
<path d="M6360 5999 c7 -13 10 -68 8 -150 l-3 -129 50 0 51 0 -3 65 c-2 36 -4
94 -6 129 -3 78 -23 106 -74 106 -31 0 -33 -2 -23 -21z"/>
<path d="M5522 5997 c-25 -30 -32 -67 -18 -100 10 -24 28 -39 75 -61 65 -32
85 -62 63 -96 -19 -30 25 -12 53 22 48 57 27 113 -52 143 -74 28 -93 44 -93
76 0 31 -11 37 -28 16z"/>
<path d="M5663 5980 c11 -30 21 -37 31 -22 6 10 -21 52 -34 52 -4 0 -3 -13 3
-30z"/>
<path d="M5941 5979 c-63 -62 -65 -157 -6 -216 18 -18 37 -33 42 -33 4 0 8 63
8 140 0 77 -3 140 -7 140 -3 0 -20 -14 -37 -31z"/>
<path d="M6081 5978 c12 -44 12 -180 -1 -214 -14 -37 -7 -40 31 -14 36 27 59
74 59 125 0 42 -12 69 -48 108 -36 38 -53 36 -41 -5z"/>
<path d="M4480 5815 c0 -3 7 -16 15 -29 9 -13 22 -56 29 -95 8 -40 16 -74 17
-76 2 -2 27 -4 54 -6 39 -2 49 1 46 12 -31 111 -48 147 -81 170 -25 17 -80 34
-80 24z"/>
<path d="M5480 5801 c0 -6 11 -23 25 -38 l25 -28 -6 30 c-4 17 -9 33 -11 38
-6 10 -33 9 -33 -2z"/>
<path d="M4618 5325 c-102 -68 -116 -81 -101 -96 5 -5 38 4 82 23 61 28 74 30
82 18 10 -15 3 -415 -7 -452 -3 -10 -14 -18 -25 -18 -29 0 -59 -18 -54 -33 4
-9 38 -12 123 -11 100 0 117 3 120 17 2 11 -6 18 -25 22 -15 4 -33 8 -39 10
-19 6 -23 80 -17 328 7 302 13 293 -139 192z"/>
<path d="M5152 5351 c-123 -80 -199 -172 -234 -283 -37 -121 -16 -225 58 -286
74 -62 174 -53 249 22 90 91 80 244 -20 306 -40 25 -87 28 -137 10 -21 -8 -41
-11 -44 -7 -12 11 64 112 142 191 41 41 74 77 74 80 0 15 -31 3 -88 -33z m9
-297 c82 -73 55 -248 -42 -269 -116 -26 -197 192 -103 274 23 19 36 22 76 19
28 -3 57 -13 69 -24z"/>
<path d="M5593 5361 c-76 -26 -125 -63 -165 -123 -44 -65 -58 -114 -58 -198 0
-122 80 -238 189 -275 101 -33 238 -34 351 -1 l45 13 5 94 c5 90 6 94 33 107
15 7 27 20 27 28 0 20 -195 21 -203 0 -7 -18 1 -26 29 -26 32 0 45 -31 42 -98
-3 -51 -6 -58 -30 -70 -49 -23 -139 -33 -194 -22 -147 30 -245 178 -215 321
32 147 127 221 286 221 93 0 144 -18 165 -57 26 -49 56 -17 48 51 -3 25 -9 31
-48 41 -72 18 -246 15 -307 -6z"/>
<path d="M6084 5371 c-11 -11 -1 -28 26 -43 l30 -17 -2 -253 -3 -253 -28 -13
c-16 -8 -27 -20 -25 -28 2 -13 30 -16 158 -17 l155 -2 45 30 c51 34 90 100 90
153 0 62 -48 123 -109 139 -45 12 -48 25 -11 41 68 31 101 136 61 199 -37 60
-54 64 -226 66 -86 1 -159 0 -161 -2z m297 -80 c58 -59 27 -153 -59 -179 -93
-28 -112 -11 -112 101 0 105 2 107 77 107 58 0 67 -3 94 -29z m-1 -259 c73
-36 89 -135 31 -193 -51 -51 -168 -63 -191 -19 -11 20 -14 188 -4 214 9 23
117 22 164 -2z"/>
<path d="M5115 4610 l-50 -5 -3 -87 c-2 -74 0 -88 13 -88 12 0 15 14 15 75 0
59 3 75 15 75 11 0 15 -18 17 -77 3 -79 21 -108 26 -43 9 134 29 162 34 48 2
-60 6 -73 21 -76 13 -3 17 3 17 28 0 23 5 33 20 37 11 3 20 14 20 24 0 25 12
24 35 -1 15 -16 29 -20 69 -18 l51 3 3 43 c2 23 7 42 11 42 23 0 67 -32 71
-52 7 -28 54 -47 78 -32 21 13 28 70 11 90 -15 19 -63 18 -80 -2 -12 -14 -14
-14 -25 1 -13 18 -69 24 -84 9 -5 -5 -10 -25 -12 -44 -3 -32 -5 -35 -33 -32
-16 2 -34 8 -40 13 -14 14 7 43 34 47 12 2 20 9 18 15 -7 19 -60 10 -79 -13
-21 -25 -28 -25 -28 0 0 11 -7 20 -16 20 -11 0 -14 -6 -9 -20 8 -25 -6 -26
-22 -1 -14 23 -35 28 -98 21z m459 -44 c9 -13 7 -20 -8 -31 -32 -24 -62 15
-34 43 15 15 28 11 42 -12z"/>
<path d="M5293 4470 c-32 -13 -29 -35 7 -50 37 -15 29 -32 -14 -29 -35 3 -59
-7 -51 -22 10 -16 132 -11 149 6 21 22 10 42 -30 55 -49 17 -42 30 16 30 28 0
50 5 50 10 0 12 -97 12 -127 0z"/>
<path d="M5455 4470 c-3 -5 3 -10 14 -10 12 0 21 5 21 10 0 6 -6 10 -14 10 -8
0 -18 -4 -21 -10z"/>
<path d="M6394 4468 c-12 -5 -31 -27 -43 -49 -25 -44 -36 -49 -44 -18 -5 17
-12 20 -49 17 -35 -2 -43 -7 -43 -23 0 -15 8 -21 33 -23 17 -2 32 -8 32 -14 0
-16 -72 -1 -82 17 -6 9 -23 15 -44 15 -23 0 -33 4 -28 11 4 7 20 8 41 4 21 -4
33 -3 29 3 -9 15 -65 20 -83 7 -25 -18 -9 -45 26 -45 16 0 33 -4 36 -10 4 -6
-13 -10 -43 -10 -45 0 -49 2 -65 35 -18 38 -42 46 -51 17 -4 -10 -16 -29 -28
-41 l-21 -23 24 8 c27 9 42 8 119 -4 35 -6 63 -6 77 1 15 7 27 7 35 0 19 -16
79 -9 90 10 13 24 25 21 32 -8 8 -30 60 -65 98 -65 29 0 88 43 75 56 -4 4 -16
-2 -27 -14 -28 -30 -80 -29 -108 1 -25 27 -29 73 -7 103 15 23 64 37 90 28 20
-8 19 -34 -1 -34 -18 0 -84 -48 -84 -61 0 -5 15 -9 34 -9 19 0 38 -5 41 -10
11 -18 36 9 26 28 -14 24 -1 54 20 49 32 -8 31 10 -2 37 -32 27 -69 32 -105
14z m-104 -74 c0 -2 -12 -4 -26 -4 -14 0 -23 4 -20 9 6 8 46 4 46 -5z m-240
-15 c0 -5 -7 -9 -15 -9 -15 0 -20 12 -9 23 8 8 24 -1 24 -14z"/>
<path d="M5503 4443 c-9 -23 -23 -33 -50 -33 -25 0 -50 -35 -33 -45 18 -11
117 6 149 26 50 30 39 60 -26 66 -25 3 -35 -1 -40 -14z"/>
<path d="M5803 4422 c-24 -15 -20 -82 5 -81 10 0 12 3 5 6 -18 7 -16 52 2 59
23 9 85 -5 85 -19 0 -7 -12 -19 -26 -28 -25 -15 -24 -15 33 -16 32 0 48 2 36
4 -16 3 -23 13 -25 36 -2 23 -7 31 -20 29 -9 -1 -19 2 -23 8 -7 12 -55 13 -72
2z"/>
<path d="M5061 4311 c-14 -26 -14 -114 0 -128 8 -8 87 -10 263 -7 138 3 257 7
264 9 8 3 12 26 12 70 l0 65 -42 0 c-24 0 -143 3 -265 6 -214 5 -222 4 -232
-15z m244 -57 c0 -38 -4 -49 -17 -52 -11 -2 -18 3 -18 12 0 9 -8 16 -19 16
-10 0 -38 3 -63 6 -41 6 -46 4 -51 -16 -9 -34 -32 -18 -35 25 -4 49 13 68 36
39 14 -17 26 -20 74 -16 46 3 57 7 61 24 11 39 32 13 32 -38z m235 46 c37 -20
11 -30 -76 -30 -76 0 -85 -2 -82 -17 3 -15 18 -19 85 -23 85 -6 108 -14 83
-30 -17 -11 -122 -13 -169 -4 -29 6 -31 9 -31 50 0 29 5 46 16 52 24 13 150
15 174 2z"/>
<path d="M2904 3639 c-12 -19 -5 -580 8 -596 11 -13 5 -160 -10 -243 -5 -30
-11 -167 -12 -305 -1 -137 -5 -328 -9 -424 -4 -117 -3 -179 5 -189 9 -12 73
-15 400 -17 214 -2 498 -6 632 -10 225 -7 244 -7 262 10 24 21 26 37 5 29 -13
-5 -15 54 -15 502 0 697 9 1037 27 1023 10 -9 13 -8 13 3 0 8 -47 60 -104 116
l-103 102 -174 0 c-96 0 -341 3 -545 7 -313 5 -372 4 -380 -8z m63 -781 c-4
-359 -7 -702 -7 -761 0 -79 -3 -106 -12 -101 -8 5 -10 192 -5 750 3 409 9 748
12 754 3 5 9 10 12 10 4 0 3 -294 0 -652z m41 582 c-3 -27 -3 -50 0 -50 2 0
18 11 34 25 l30 26 477 -7 c459 -6 478 -7 523 -27 l48 -22 0 -330 c0 -181 -3
-496 -7 -698 -6 -344 -8 -370 -25 -390 l-20 -22 7 25 c13 46 18 196 6 185 -6
-6 -11 -43 -12 -83 -1 -40 -6 -75 -11 -78 -6 -4 -9 19 -7 57 1 51 -1 63 -12
60 -33 -9 -963 1 -985 11 -13 6 -32 23 -41 37 l-18 26 -6 -80 c-3 -44 -4 244
-2 640 3 396 6 726 9 733 9 30 16 8 12 -38z"/>
<path d="M3047 3398 l-24 -24 -7 -588 c-8 -642 -9 -624 48 -646 13 -5 236 -10
495 -11 453 -2 472 -1 486 17 12 16 14 109 15 594 0 316 3 591 6 610 4 28 1
37 -14 47 -13 8 -165 13 -500 18 l-480 7 -25 -24z m951 -50 c28 -28 -6 -79
-43 -64 -10 3 -12 -9 -9 -55 4 -58 4 -59 -22 -59 -24 0 -25 2 -23 52 2 31 -1
53 -8 55 -13 5 -22 -111 -11 -132 12 -20 -17 -39 -32 -20 -10 12 -10 18 0 30
10 12 10 15 -4 15 -9 0 -16 4 -16 10 0 5 -7 7 -15 4 -10 -4 -14 -17 -12 -38 3
-38 -26 -44 -32 -6 -4 32 -19 41 -52 34 -17 -3 -32 1 -42 11 -10 9 -18 11 -22
5 -10 -16 -35 -12 -35 5 0 9 -8 19 -17 22 -10 4 -21 11 -25 17 -4 6 -10 8 -13
4 -3 -3 5 -18 20 -33 24 -27 27 -51 3 -27 -16 16 -28 15 -28 -3 0 -8 9 -15 20
-15 11 0 20 -7 20 -15 0 -19 -32 -33 -38 -17 -2 7 -20 9 -53 5 -41 -5 -49 -3
-49 11 0 9 8 16 20 16 11 0 20 -5 20 -11 0 -5 5 -7 10 -4 17 10 11 25 -9 25
-11 0 -22 4 -25 9 -9 14 -46 1 -57 -22 -8 -15 -8 -22 2 -28 11 -7 10 -9 -4 -9
-22 0 -34 27 -18 43 13 13 15 113 1 122 -13 8 -24 -39 -17 -75 5 -23 2 -30
-14 -35 -16 -5 -19 -12 -15 -31 5 -18 2 -24 -9 -24 -20 0 -31 28 -16 43 6 6
11 39 11 74 l0 63 49 0 c36 0 51 -4 55 -16 6 -15 8 -15 24 -1 31 28 207 18
178 -10 -5 -4 -11 -2 -13 5 -5 14 -33 16 -33 2 0 -9 51 -40 66 -40 3 0 4 13 1
29 -4 21 -1 34 14 46 24 23 33 14 32 -33 l-1 -37 20 28 c23 32 62 36 90 10 15
-14 19 -14 16 -3 -2 10 6 15 22 16 68 3 70 4 70 27 0 13 3 27 7 30 11 11 48 8
61 -5z m-687 0 c1 -2 3 -40 5 -85 3 -68 1 -83 -11 -83 -8 0 -15 -9 -15 -19 0
-11 -5 -23 -10 -26 -11 -7 -7 186 5 205 5 9 23 14 26 8z m-149 -81 l-5 -32 22
19 c11 11 21 25 21 31 0 14 37 27 44 16 3 -4 -11 -20 -31 -35 -35 -29 -35 -29
-15 -45 19 -15 42 -59 42 -82 0 -14 -40 -11 -44 4 -3 6 -7 24 -10 40 -10 44
-29 33 -23 -13 5 -38 4 -40 -21 -40 l-27 0 2 87 c1 49 3 89 3 89 0 1 10 -1 23
-3 20 -4 23 -9 19 -36z m508 -126 c0 -19 -23 -35 -34 -24 -14 15 -5 43 14 43
13 0 20 -7 20 -19z m53 -3 c7 -25 3 -33 -12 -23 -13 8 -15 45 -2 45 5 0 11
-10 14 -22z m225 0 c-5 -15 -23 -11 -26 6 -2 11 2 14 13 10 9 -4 14 -11 13
-16z m-788 -102 c0 -11 -40 -96 -45 -96 -5 0 -45 85 -45 96 0 2 20 4 45 4 25
0 45 -2 45 -4z m20 -76 c0 -20 5 -30 15 -30 8 0 15 -4 15 -10 0 -14 -23 -13
-38 2 -14 14 -16 68 -2 68 6 0 10 -13 10 -30z m185 4 c8 3 12 -4 11 -20 -1
-26 -36 -35 -36 -10 0 20 -13 27 -30 16 -11 -7 -11 -11 -1 -24 16 -19 1 -22
-18 -3 -11 10 -14 10 -18 0 -3 -7 -10 -13 -18 -13 -19 0 -36 25 -29 44 7 18
39 22 50 5 4 -8 9 -8 17 0 6 6 19 11 29 11 10 0 19 6 19 13 1 6 3 4 6 -6 3
-10 11 -16 18 -13z m-80 -138 c11 0 29 3 41 7 14 5 29 1 47 -14 27 -20 27 -23
27 -140 l0 -119 -25 0 -25 0 0 111 c0 100 -2 110 -17 107 -16 -3 -18 -18 -21
-111 -3 -105 -3 -108 -25 -105 -21 3 -22 8 -25 111 -2 85 -6 107 -17 107 -11
0 -15 -22 -17 -107 -3 -108 -3 -108 -28 -108 -24 0 -25 3 -28 65 -1 36 1 92 5
125 7 49 12 62 33 72 14 7 32 10 40 6 8 -3 24 -6 35 -7z m175 -28 c-1 -18 0
-53 2 -78 3 -42 1 -45 -22 -45 -26 0 -26 1 -16 110 4 48 3 45 21 45 10 0 15
-10 15 -32z m148 10 c-2 -18 -11 -24 -36 -26 -57 -6 -52 -57 6 -64 19 -2 27
-9 27 -23 0 -15 -8 -21 -32 -23 -43 -4 -72 13 -88 51 -25 60 11 106 83 107 39
0 43 -2 40 -22z m148 -3 c8 -13 13 -29 9 -35 -9 -15 -42 -12 -49 5 -3 8 -12
15 -20 15 -11 0 -16 -15 -18 -57 -3 -51 -6 -58 -25 -61 -22 -3 -23 0 -23 59 0
77 16 99 71 99 30 0 42 -6 55 -25z m143 8 c33 -27 38 -82 11 -116 -27 -35 -87
-38 -116 -6 -28 31 -25 96 5 120 29 24 72 24 100 2z m-219 -178 c0 -11 -12
-15 -47 -16 -27 -1 -59 -4 -73 -9 -23 -7 -24 -8 -5 -15 11 -4 33 -12 48 -17
52 -20 58 -71 10 -89 -13 -5 -63 -9 -109 -9 l-85 0 3 28 c3 26 4 27 61 24 65
-4 73 7 22 31 -51 24 -46 66 10 80 11 2 53 5 93 6 58 1 72 -2 72 -14z m184 -7
c82 -25 81 -83 -2 -121 -53 -23 -202 -37 -202 -19 0 29 25 62 46 62 66 0 101
45 44 57 -34 6 -45 17 -34 34 7 12 83 6 148 -13z m-574 -284 c14 -41 24 -37
24 9 1 25 6 33 23 35 50 7 83 -39 56 -78 -12 -17 -23 -20 -59 -18 -24 2 -46 9
-49 16 -6 17 -25 15 -48 -5 -20 -18 -20 -17 -13 12 9 39 34 77 46 70 5 -3 14
-21 20 -41z m290 31 c17 -20 5 -45 -20 -45 -12 0 -24 -9 -30 -22 -5 -13 -9
-18 -10 -13 -1 6 -3 23 -5 40 -7 49 36 75 65 40z m95 5 c6 0 2 -5 -7 -11 -11
-6 -18 -22 -18 -39 0 -16 -4 -32 -10 -35 -6 -4 -10 8 -10 30 0 22 -6 38 -15
41 -27 11 -16 22 18 18 17 -1 37 -3 42 -4z m80 -9 c-4 -3 -12 -6 -17 -6 -6 0
-13 -6 -16 -14 -3 -10 0 -12 12 -8 9 4 16 2 16 -3 0 -6 -7 -10 -16 -10 -9 0
-14 -6 -11 -12 2 -7 10 -12 16 -10 6 1 11 -2 11 -8 0 -5 -11 -10 -25 -10 -23
0 -25 4 -25 43 0 52 3 56 36 49 14 -2 22 -7 19 -11z m-269 -26 c19 -47 18 -58
-6 -43 -16 10 -24 10 -40 0 -24 -15 -25 -4 -6 43 8 19 20 35 26 35 6 0 18 -16
26 -35z m369 0 c1 -17 4 -36 8 -43 11 -17 -8 -15 -23 3 -7 8 -16 15 -21 15 -5
0 -9 -7 -9 -15 0 -8 -4 -15 -10 -15 -5 0 -10 21 -10 46 0 45 0 45 33 42 28 -3
32 -7 32 -33z m-425 -124 c0 -5 -8 -8 -17 -7 -12 1 -19 -7 -21 -23 -3 -21 -1
-23 25 -17 27 7 27 7 10 -11 -13 -14 -21 -15 -35 -7 -22 14 -27 41 -12 59 14
16 50 20 50 6z m56 -21 c8 0 14 5 14 10 0 6 5 10 10 10 6 0 10 -11 10 -25 0
-26 -14 -33 -26 -13 -5 8 -11 6 -19 -6 -11 -14 -13 -15 -19 -1 -3 8 -2 23 1
32 4 11 8 12 11 5 2 -7 10 -12 18 -12z m61 -27 c-3 -10 -5 -2 -5 17 0 19 2 27
5 18 2 -10 2 -26 0 -35z m48 37 c3 -5 -1 -20 -9 -32 -16 -22 -16 -22 -16 10 0
31 12 42 25 22z m30 -48 c-6 -15 -7 -15 -17 2 -8 15 -8 21 0 24 7 2 13 11 13
20 1 10 4 7 6 -6 3 -13 2 -31 -2 -40z m73 31 c16 -35 15 -48 -2 -34 -7 6 -21
9 -30 5 -18 -7 -21 8 -6 37 14 26 23 24 38 -8z"/>
<path d="M3960 3300 c0 -5 5 -10 10 -10 6 0 10 5 10 10 0 6 -4 10 -10 10 -5 0
-10 -4 -10 -10z"/>
<path d="M3499 3283 c-10 -59 -4 -97 12 -88 12 8 12 82 -1 90 -5 3 -11 3 -11
-2z"/>
<path d="M3764 3276 c-9 -22 0 -91 11 -89 14 4 19 103 5 103 -6 0 -13 -6 -16
-14z"/>
<path d="M3711 3214 c0 -11 3 -14 6 -6 3 7 2 16 -1 19 -3 4 -6 -2 -5 -13z"/>
<path d="M3240 2940 c0 -5 5 -10 10 -10 6 0 10 5 10 10 0 6 -4 10 -10 10 -5 0
-10 -4 -10 -10z"/>
<path d="M3827 2774 c-11 -12 -8 -41 6 -53 19 -15 50 9 45 35 -3 19 -38 31
-51 18z"/>
<path d="M3334 2356 c-9 -24 4 -48 23 -44 12 2 18 12 18 28 0 29 -32 41 -41
16z"/>
<path d="M3535 2361 c-7 -12 12 -24 25 -16 11 7 4 25 -10 25 -5 0 -11 -4 -15
-9z"/>
<path d="M3815 2359 c-10 -15 3 -25 16 -12 7 7 7 13 1 17 -6 3 -14 1 -17 -5z"/>
<path d="M4203 3165 c0 -44 2 -61 4 -37 2 23 2 59 0 80 -2 20 -4 1 -4 -43z"/>
<path d="M4453 3138 c-4 -7 -10 -184 -13 -392 -4 -291 -8 -380 -17 -384 -19
-6 -16 -39 5 -47 9 -4 141 -10 292 -12 259 -5 277 -5 294 13 12 11 15 19 7 22
-7 2 -11 48 -11 142 0 82 -4 141 -10 145 -5 3 -10 21 -10 40 0 19 5 37 10 40
6 3 10 29 10 58 0 39 -5 57 -23 76 -36 41 -48 92 -46 198 2 96 2 97 -24 104
-14 4 -122 8 -240 8 -167 2 -217 -1 -224 -11z m177 -70 c0 -3 -5 -8 -12 -10
-6 -2 -8 -10 -4 -16 11 -18 26 -14 26 7 0 22 12 27 65 26 34 0 41 -4 43 -22 3
-19 -1 -23 -23 -23 -14 0 -28 7 -31 15 -10 25 -34 17 -34 -10 0 -16 -6 -25
-15 -25 -18 0 -19 -12 -4 -27 17 -17 51 -4 44 18 -7 22 -7 22 34 8 64 -22 27
-49 -73 -53 -42 -1 -79 -5 -83 -9 -3 -4 1 -7 10 -7 20 0 23 -26 5 -33 -10 -4
-10 -8 2 -16 21 -14 31 -4 24 25 l-6 25 73 -3 74 -3 3 -32 c4 -37 3 -37 -128
-38 -49 0 -55 -2 -58 -22 -2 -16 2 -23 12 -23 20 0 20 -17 1 -54 -9 -17 -15
-56 -15 -102 l0 -73 130 0 c71 0 132 5 135 10 10 15 35 10 35 -6 0 -8 -7 -15
-15 -15 -25 0 -19 -48 7 -52 14 -2 22 -11 23 -26 2 -28 -19 -39 -39 -23 -8 7
-17 8 -20 3 -3 -5 -15 -8 -28 -6 -13 1 -29 3 -35 3 -7 1 -13 8 -13 17 0 12 7
15 30 12 19 -3 31 0 35 10 3 8 4 16 3 18 -2 1 -36 4 -76 6 -63 4 -75 2 -83
-14 -9 -16 -5 -18 31 -18 29 0 40 -4 40 -15 0 -12 -15 -15 -77 -16 -43 0 -88
0 -100 -1 -17 0 -23 -6 -24 -22 l0 -21 -16 23 c-8 12 -22 22 -29 22 -8 0 -14
7 -14 15 0 8 7 15 15 15 8 0 15 7 15 15 0 8 -4 15 -10 15 -16 0 -12 67 5 74
12 4 15 28 15 125 0 69 -4 122 -10 126 -14 8 -13 51 2 75 9 14 9 25 1 42 -14
30 -15 69 -2 84 11 13 139 15 139 2z m220 -17 c0 -5 3 -16 6 -25 4 -12 0 -16
-16 -16 -16 0 -20 4 -16 16 3 9 6 20 6 25 0 5 5 9 10 9 6 0 10 -4 10 -9z m30
-111 c0 -47 -4 -61 -18 -69 -24 -13 -66 8 -70 34 -3 18 -2 18 13 -2 9 -13 26
-22 38 -22 21 2 21 2 -1 6 -17 3 -22 10 -20 26 2 14 -2 21 -10 19 -10 -2 -10
2 0 18 7 11 19 18 26 15 8 -3 16 3 19 15 11 40 23 19 23 -40z m-210 -130 c-17
-5 -19 -8 -7 -9 18 -1 21 -9 11 -35 -4 -10 -18 -16 -40 -16 -37 0 -39 5 -24
44 8 22 15 26 47 25 34 -1 35 -2 13 -9z m144 -38 c-6 -19 -13 -22 -60 -22 -47
0 -54 3 -54 19 0 25 17 36 34 22 10 -8 21 -7 42 4 33 17 46 9 38 -23z m144
-168 c-3 -105 -9 -158 -17 -168 -21 -25 -32 -19 -21 10 9 22 8 25 -5 20 -13
-5 -15 15 -15 149 0 85 3 155 8 155 4 0 5 -54 4 -121 -3 -78 0 -125 7 -132 8
-8 11 27 11 124 0 75 3 139 7 143 18 18 25 -40 21 -180z m-128 97 c0 -14 -5
-18 -20 -14 -11 3 -20 9 -20 14 0 5 7 6 15 3 8 -4 15 -1 15 5 0 6 2 11 5 11 3
0 5 -9 5 -19z m-65 -1 c-3 -5 -16 -10 -28 -9 -20 1 -20 2 3 9 14 4 26 8 28 9
2 1 0 -3 -3 -9z"/>
<path d="M4715 3050 c3 -5 8 -10 11 -10 2 0 4 5 4 10 0 6 -5 10 -11 10 -5 0
-7 -4 -4 -10z"/>
<path d="M4500 3034 c0 -8 5 -12 10 -9 6 3 10 10 10 16 0 5 -4 9 -10 9 -5 0
-10 -7 -10 -16z"/>
<path d="M4578 3019 c-26 -14 -23 -49 3 -49 16 0 19 4 14 20 -4 11 -2 20 4 20
6 0 11 5 11 10 0 13 -10 12 -32 -1z"/>
<path d="M4527 2985 c-6 -35 2 -54 14 -32 5 8 5 26 1 38 -9 22 -9 22 -15 -6z"/>
<path d="M4626 2914 c-6 -16 0 -34 12 -34 4 0 8 11 8 25 2 28 -11 34 -20 9z"/>
<path d="M4670 2920 c20 -13 53 -13 45 0 -3 6 -18 10 -33 10 -21 0 -24 -2 -12
-10z"/>
<path d="M4673 2883 c9 -2 23 -2 30 0 6 3 -1 5 -18 5 -16 0 -22 -2 -12 -5z"/>
<path d="M4520 2784 c0 -47 4 -73 10 -69 6 3 10 37 10 76 0 39 -4 69 -10 69
-6 0 -10 -32 -10 -76z"/>
<path d="M4520 2644 c0 -27 4 -43 10 -39 6 3 10 24 10 46 0 21 -4 39 -10 39
-5 0 -10 -21 -10 -46z"/>
<path d="M4520 2524 c0 -8 5 -12 10 -9 6 3 10 10 10 16 0 5 -4 9 -10 9 -5 0
-10 -7 -10 -16z"/>
<path d="M4560 2525 c0 -10 11 -15 35 -15 24 0 35 5 35 15 0 10 -11 15 -35 15
-24 0 -35 -5 -35 -15z"/>
<path d="M4637 2783 c-4 -3 -7 -11 -7 -17 0 -6 5 -5 12 2 6 6 9 14 7 17 -3 3
-9 2 -12 -2z"/>
<path d="M4196 2948 c-7 -63 -8 -744 -1 -736 6 6 19 788 12 788 -2 0 -7 -24
-11 -52z"/>
<path d="M4311 2654 c0 -11 3 -14 6 -6 3 7 2 16 -1 19 -3 4 -6 -2 -5 -13z"/>
<path d="M4303 2555 c0 -22 2 -30 4 -17 2 12 2 30 0 40 -3 9 -5 -1 -4 -23z"/>
<path d="M4328 2501 c-1 -32 0 -72 3 -87 4 -17 7 8 8 59 1 99 -5 117 -11 28z"/>
<path d="M6083 1600 c-92 -19 -184 -94 -226 -188 -32 -72 -30 -180 5 -252 62
-127 197 -202 330 -185 45 6 46 8 36 31 -13 29 -28 31 -28 5 0 -30 -17 -35
-31 -9 l-12 22 -8 -23 c-11 -27 -33 -23 -37 7 -4 26 -17 29 -26 6 -7 -17 -30
-14 -32 4 -3 23 -4 24 -21 11 -13 -11 -17 -11 -20 -1 -3 6 -9 10 -14 6 -12 -7
-11 17 1 36 7 11 12 12 18 3 4 -6 25 -14 47 -18 l40 -7 -53 27 c-63 32 -108
84 -126 145 -11 34 -16 41 -21 28 -9 -24 -42 -23 -54 1 -9 15 -7 20 12 25 21
6 21 7 5 20 -22 16 -23 36 -3 36 19 0 19 16 0 24 -22 8 -7 39 16 33 12 -3 19
0 19 9 0 8 -4 14 -10 14 -5 0 -10 7 -10 16 0 12 6 15 25 10 27 -7 32 3 14 21
-9 9 -7 16 5 29 17 16 19 16 39 -5 19 -18 19 -21 4 -21 -9 0 -17 -5 -17 -12 0
-6 -6 -19 -14 -27 -15 -18 -36 -98 -35 -133 0 -13 6 2 13 32 14 66 45 119 94
161 20 17 32 29 25 25 -6 -3 -19 4 -27 16 -18 26 -13 36 9 18 13 -11 15 -9 15
14 0 14 4 26 8 26 11 0 42 -34 42 -46 0 -5 33 -9 74 -9 73 0 75 0 80 28 3 15
6 30 8 35 1 4 -6 8 -15 10 -12 3 -17 -4 -17 -22 0 -29 -11 -39 -35 -30 -13 5
-15 14 -11 35 6 32 -2 34 -81 19z m37 -36 c0 -8 -4 -12 -10 -9 -5 3 -10 10
-10 16 0 5 5 9 10 9 6 0 10 -7 10 -16z m-130 -49 c7 -14 11 -27 9 -29 -8 -8
-50 34 -44 44 10 16 21 12 35 -15z m-90 -325 c0 -5 -4 -10 -10 -10 -5 0 -10 5
-10 10 0 6 5 10 10 10 6 0 10 -4 10 -10z m54 -52 c3 -14 0 -29 -9 -37 -13 -13
-17 -12 -35 9 l-21 24 23 13 c31 17 35 16 42 -9z m29 -50 c-6 -7 -12 -18 -14
-25 -3 -8 -9 -9 -19 -3 -13 8 -12 11 5 24 24 19 41 21 28 4z"/>
<path d="M6278 1571 c9 -5 11 -17 6 -35 -5 -21 -10 -25 -28 -20 -11 3 0 -8 27
-26 56 -38 97 -103 103 -163 l3 -42 -8 37 c-16 77 -87 153 -165 178 -76 25
-179 -9 -234 -76 -113 -137 -8 -354 171 -354 66 0 120 19 160 58 16 15 26 20
22 12 -4 -13 -36 -38 -88 -72 -6 -4 -4 -12 6 -23 13 -12 15 -21 7 -36 -16 -28
7 -25 61 9 163 104 201 315 82 470 -25 34 -107 92 -127 92 -6 0 -5 -4 2 -9z
m52 -62 c0 -5 -4 -9 -10 -9 -5 0 -10 7 -10 16 0 8 5 12 10 9 6 -3 10 -10 10
-16z m-150 -45 c0 -15 -6 -24 -15 -24 -15 0 -21 40 -9 53 12 11 24 -3 24 -29z
m211 14 c24 -30 24 -44 -1 -51 -27 -7 -52 31 -36 56 14 22 14 22 37 -5z m-261
-7 c0 -11 -15 -28 -37 -41 -35 -21 -38 -21 -50 -4 -15 21 -8 33 9 16 19 -19
30 -14 26 11 -2 13 2 21 10 20 6 -2 12 2 12 7 0 6 7 10 15 10 8 0 15 -9 15
-19z m110 1 c0 -5 -7 -17 -15 -28 -14 -18 -14 -18 -15 9 0 17 5 27 15 27 8 0
15 -4 15 -8z m24 -34 c-6 -20 -5 -21 9 -9 14 11 19 10 33 -3 9 -9 13 -23 10
-31 -3 -9 0 -15 9 -15 13 0 31 -18 24 -24 -2 -2 -14 -7 -26 -10 -17 -5 -23 -2
-29 16 -4 13 -7 26 -6 31 1 4 -1 7 -5 7 -20 1 -43 29 -37 44 10 25 26 19 18
-6z m-234 -34 c0 -8 -4 -12 -10 -9 -5 3 -10 10 -10 16 0 5 5 9 10 9 6 0 10 -7
10 -16z m403 9 c4 -3 0 -15 -10 -25 -15 -17 -15 -18 4 -18 11 0 22 -3 26 -6
10 -10 -4 -34 -22 -35 -11 0 -9 -3 7 -9 27 -12 29 -40 2 -40 -26 0 -26 -12 0
-28 25 -15 18 -32 -13 -32 -20 -1 -21 -2 -5 -14 25 -19 13 -59 -16 -50 -28 9
-29 10 -20 26 24 38 23 137 -2 221 -4 13 0 17 19 17 13 0 27 -3 30 -7z m-433
-43 c13 -8 13 -13 -2 -40 -12 -20 -13 -32 -6 -36 7 -5 5 -12 -7 -21 -36 -26
-37 -21 -20 82 2 11 4 21 4 23 2 5 17 1 31 -8z m148 -22 c-2 -18 -11 -24 -34
-26 -18 -2 -40 -12 -50 -23 -17 -18 -17 -21 -1 -36 16 -16 21 -13 75 46 52 56
62 62 92 59 62 -6 67 -83 10 -139 -30 -31 -46 -35 -70 -19 -22 14 0 44 36 47
29 2 54 25 54 50 0 28 -39 11 -85 -38 -26 -28 -59 -55 -72 -60 -51 -19 -84 32
-63 97 14 41 44 64 83 64 24 0 28 -4 25 -22z m202 -38 c0 -5 -4 -10 -10 -10
-5 0 -10 5 -10 10 0 6 5 10 10 10 6 0 10 -4 10 -10z m9 -37 c0 -5 -4 -16 -8
-27 -7 -18 -8 -18 -25 0 -18 17 -18 18 0 25 25 10 34 10 33 2z m-339 -65 c0
-5 -14 -8 -30 -8 -30 0 -30 0 -14 25 15 24 17 24 30 8 7 -10 14 -21 14 -25z
m315 11 c11 -17 0 -20 -21 -4 -17 13 -17 14 -2 15 9 0 20 -5 23 -11z m-16 -28
c7 -5 10 -14 6 -20 -5 -9 -10 -9 -21 0 -26 22 -14 38 15 20z m42 -18 c-12 -20
-14 -14 -5 12 4 9 9 14 11 11 3 -2 0 -13 -6 -23z m-331 -3 c0 -5 -4 -10 -10
-10 -5 0 -10 5 -10 10 0 6 5 10 10 10 6 0 10 -4 10 -10z m260 -20 c0 -22 -16
-35 -25 -20 -11 18 -27 11 -20 -10 3 -11 3 -20 -2 -20 -8 0 -37 41 -31 43 2 1
17 9 33 18 34 18 45 16 45 -11z m-181 -15 c10 -10 10 -18 2 -31 -9 -17 -10
-17 -11 6 0 19 -3 21 -12 12 -20 -20 -38 -14 -38 14 0 22 3 24 23 19 12 -4 28
-13 36 -20z m300 -1 c2 -2 1 -11 -3 -20 -6 -16 -8 -15 -26 4 -11 12 -20 24
-20 27 0 6 40 -3 49 -11z m-244 -4 c3 -5 12 -7 20 -3 11 3 15 -2 15 -17 0 -18
-3 -20 -14 -11 -10 9 -15 8 -20 -4 -3 -8 -12 -15 -21 -15 -18 0 -20 16 -2 24
10 5 10 7 0 12 -7 3 -13 10 -13 15 0 12 27 12 35 -1z m196 -31 c17 -9 18 -13
8 -26 -12 -13 -14 -13 -26 3 -24 32 -16 42 18 23z m-51 -49 c0 -5 -4 -10 -10
-10 -5 0 -10 5 -10 10 0 6 5 10 10 10 6 0 10 -4 10 -10z"/>
<path d="M6055 1520 c-3 -5 -1 -10 4 -10 6 0 11 5 11 10 0 6 -2 10 -4 10 -3 0
-8 -4 -11 -10z"/>
<path d="M6170 1046 c0 -9 7 -12 20 -9 31 8 34 23 6 23 -16 0 -26 -6 -26 -14z"/>
<path d="M6110 1046 c0 -2 9 -6 20 -9 11 -3 18 -1 14 4 -5 9 -34 13 -34 5z"/>
</g>
</svg>
