<svg xmlns="http://www.w3.org/2000/svg" xmlns:xlink="http://www.w3.org/1999/xlink" width="321" zoomAndPan="magnify" viewBox="0 0 240.75 240.749997" height="321" preserveAspectRatio="xMidYMid meet" version="1.0"><defs><clipPath id="df047faab1"><path d="M 0.703125 2 L 227 2 L 227 238 L 0.703125 238 Z M 0.703125 2 " clip-rule="nonzero"/></clipPath></defs><g clip-path="url(#df047faab1)"><path fill="#000a05" d="M 217.542969 237.550781 C 217.328125 237.5625 217.117188 237.5625 216.902344 237.550781 C 216.5625 237.511719 216.230469 237.441406 215.902344 237.34375 C 215.574219 237.242188 215.257812 237.113281 214.957031 236.953125 C 214.652344 236.796875 214.363281 236.613281 214.09375 236.402344 C 213.824219 236.191406 213.578125 235.957031 213.347656 235.699219 C 213.121094 235.445312 212.921875 235.167969 212.742188 234.875 C 212.566406 234.582031 212.417969 234.277344 212.296875 233.957031 C 212.175781 233.636719 212.085938 233.304688 212.027344 232.96875 C 211.96875 232.632812 211.9375 232.292969 211.941406 231.949219 C 211.941406 149.640625 122.46875 139.410156 98.664062 138.144531 L 98.664062 194.609375 C 98.664062 195.171875 98.582031 195.722656 98.417969 196.261719 C 98.253906 196.800781 98.015625 197.300781 97.699219 197.769531 C 97.382812 198.234375 97.003906 198.644531 96.566406 198.996094 C 96.125 199.347656 95.644531 199.628906 95.121094 199.835938 C 94.597656 200.042969 94.054688 200.167969 93.492188 200.210938 C 92.929688 200.253906 92.375 200.210938 91.824219 200.085938 C 91.277344 199.964844 90.757812 199.761719 90.269531 199.480469 C 89.78125 199.199219 89.34375 198.851562 88.960938 198.441406 L 2.347656 105.800781 C 2.109375 105.542969 1.898438 105.265625 1.710938 104.96875 C 1.527344 104.675781 1.367188 104.363281 1.242188 104.039062 C 1.113281 103.710938 1.015625 103.375 0.953125 103.03125 C 0.886719 102.6875 0.855469 102.339844 0.855469 101.992188 C 0.855469 101.640625 0.886719 101.292969 0.953125 100.949219 C 1.015625 100.605469 1.113281 100.269531 1.242188 99.945312 C 1.367188 99.621094 1.527344 99.308594 1.710938 99.011719 C 1.898438 98.714844 2.109375 98.4375 2.347656 98.183594 L 88.960938 4.074219 C 89.34375 3.664062 89.78125 3.316406 90.265625 3.035156 C 90.753906 2.753906 91.273438 2.554688 91.820312 2.429688 C 92.367188 2.304688 92.921875 2.261719 93.484375 2.304688 C 94.042969 2.347656 94.585938 2.472656 95.109375 2.675781 C 95.632812 2.882812 96.113281 3.160156 96.554688 3.511719 C 96.992188 3.859375 97.371094 4.269531 97.6875 4.730469 C 98.003906 5.195312 98.246094 5.699219 98.414062 6.234375 C 98.578125 6.773438 98.664062 7.320312 98.664062 7.882812 L 98.664062 64.59375 C 144.597656 65.660156 178.933594 80.03125 200.613281 107.359375 C 239.980469 156.84375 223.660156 230.113281 222.941406 233.203125 C 222.800781 233.816406 222.5625 234.390625 222.230469 234.921875 C 221.898438 235.457031 221.484375 235.917969 220.996094 236.3125 C 220.503906 236.707031 219.964844 237.011719 219.371094 237.222656 C 218.78125 237.433594 218.171875 237.542969 217.542969 237.550781 Z M 93.0625 126.761719 C 94.183594 126.761719 188 127.636719 215.59375 192.402344 C 215.816406 185.464844 215.472656 178.558594 214.5625 171.679688 C 213.652344 164.800781 212.191406 158.039062 210.171875 151.398438 C 208.15625 144.761719 205.609375 138.328125 202.539062 132.105469 C 199.464844 125.882812 195.910156 119.953125 191.863281 114.316406 C 171.484375 88.726562 138.246094 75.753906 93.0625 75.753906 C 92.695312 75.753906 92.328125 75.71875 91.96875 75.644531 C 91.609375 75.574219 91.257812 75.46875 90.917969 75.328125 C 90.578125 75.1875 90.253906 75.011719 89.949219 74.808594 C 89.644531 74.605469 89.359375 74.371094 89.101562 74.113281 C 88.839844 73.851562 88.609375 73.570312 88.40625 73.261719 C 88.199219 72.957031 88.027344 72.636719 87.886719 72.296875 C 87.746094 71.957031 87.640625 71.605469 87.566406 71.246094 C 87.496094 70.882812 87.460938 70.519531 87.460938 70.152344 L 87.460938 22.234375 L 14.144531 101.992188 L 87.515625 180.414062 L 87.515625 132.363281 C 87.515625 131.996094 87.550781 131.636719 87.621094 131.277344 C 87.695312 130.917969 87.796875 130.570312 87.9375 130.234375 C 88.078125 129.894531 88.246094 129.574219 88.449219 129.269531 C 88.652344 128.964844 88.878906 128.683594 89.136719 128.421875 C 89.394531 128.164062 89.675781 127.929688 89.976562 127.726562 C 90.28125 127.519531 90.597656 127.347656 90.933594 127.203125 C 91.273438 127.0625 91.621094 126.953125 91.976562 126.878906 C 92.335938 126.804688 92.695312 126.765625 93.0625 126.761719 Z M 93.0625 126.761719 " fill-opacity="1" fill-rule="nonzero"/><path fill="#000a05" d="M 217.542969 237.550781 C 217.328125 237.5625 217.117188 237.5625 216.902344 237.550781 C 216.5625 237.511719 216.230469 237.441406 215.902344 237.34375 C 215.574219 237.242188 215.257812 237.113281 214.957031 236.953125 C 214.652344 236.796875 214.363281 236.613281 214.09375 236.402344 C 213.824219 236.191406 213.578125 235.957031 213.347656 235.699219 C 213.121094 235.445312 212.921875 235.167969 212.742188 234.875 C 212.566406 234.582031 212.417969 234.277344 212.296875 233.957031 C 212.175781 233.636719 212.085938 233.304688 212.027344 232.96875 C 211.96875 232.632812 211.9375 232.292969 211.941406 231.949219 C 211.941406 149.640625 122.46875 139.410156 98.664062 138.144531 L 98.664062 194.609375 C 98.664062 195.171875 98.582031 195.722656 98.417969 196.261719 C 98.253906 196.800781 98.015625 197.300781 97.699219 197.769531 C 97.382812 198.234375 97.003906 198.644531 96.566406 198.996094 C 96.125 199.347656 95.644531 199.628906 95.121094 199.835938 C 94.597656 200.042969 94.054688 200.167969 93.492188 200.210938 C 92.929688 200.253906 92.375 200.210938 91.824219 200.085938 C 91.277344 199.964844 90.757812 199.761719 90.269531 199.480469 C 89.78125 199.199219 89.34375 198.851562 88.960938 198.441406 L 2.347656 105.800781 C 2.109375 105.542969 1.898438 105.265625 1.710938 104.96875 C 1.527344 104.675781 1.367188 104.363281 1.242188 104.039062 C 1.113281 103.710938 1.015625 103.375 0.953125 103.03125 C 0.886719 102.6875 0.855469 102.339844 0.855469 101.992188 C 0.855469 101.640625 0.886719 101.292969 0.953125 100.949219 C 1.015625 100.605469 1.113281 100.269531 1.242188 99.945312 C 1.367188 99.621094 1.527344 99.308594 1.710938 99.011719 C 1.898438 98.714844 2.109375 98.4375 2.347656 98.183594 L 88.960938 4.074219 C 89.34375 3.664062 89.78125 3.316406 90.265625 3.035156 C 90.753906 2.753906 91.273438 2.554688 91.820312 2.429688 C 92.367188 2.304688 92.921875 2.261719 93.484375 2.304688 C 94.042969 2.347656 94.585938 2.472656 95.109375 2.675781 C 95.632812 2.882812 96.113281 3.160156 96.554688 3.511719 C 96.992188 3.859375 97.371094 4.269531 97.6875 4.730469 C 98.003906 5.195312 98.246094 5.699219 98.414062 6.234375 C 98.578125 6.773438 98.664062 7.320312 98.664062 7.882812 L 98.664062 64.59375 C 144.597656 65.660156 178.933594 80.03125 200.613281 107.359375 C 239.980469 156.84375 223.660156 230.113281 222.941406 233.203125 C 222.800781 233.816406 222.5625 234.390625 222.230469 234.921875 C 221.898438 235.457031 221.484375 235.917969 220.996094 236.3125 C 220.503906 236.707031 219.964844 237.011719 219.371094 237.222656 C 218.78125 237.433594 218.171875 237.542969 217.542969 237.550781 Z M 93.0625 126.761719 C 94.183594 126.761719 188 127.636719 215.59375 192.402344 C 215.816406 185.464844 215.472656 178.558594 214.5625 171.679688 C 213.652344 164.800781 212.191406 158.039062 210.171875 151.398438 C 208.15625 144.761719 205.609375 138.328125 202.539062 132.105469 C 199.464844 125.882812 195.910156 119.953125 191.863281 114.316406 C 171.484375 88.726562 138.246094 75.753906 93.0625 75.753906 C 92.695312 75.753906 92.328125 75.71875 91.96875 75.644531 C 91.609375 75.574219 91.257812 75.46875 90.917969 75.328125 C 90.578125 75.1875 90.253906 75.011719 89.949219 74.808594 C 89.644531 74.605469 89.359375 74.371094 89.101562 74.113281 C 88.839844 73.851562 88.609375 73.570312 88.40625 73.261719 C 88.199219 72.957031 88.027344 72.636719 87.886719 72.296875 C 87.746094 71.957031 87.640625 71.605469 87.566406 71.246094 C 87.496094 70.882812 87.460938 70.519531 87.460938 70.152344 L 87.460938 22.234375 L 14.144531 101.992188 L 87.515625 180.414062 L 87.515625 132.363281 C 87.515625 131.996094 87.550781 131.636719 87.621094 131.277344 C 87.695312 130.917969 87.796875 130.570312 87.9375 130.234375 C 88.078125 129.894531 88.246094 129.574219 88.449219 129.269531 C 88.652344 128.964844 88.878906 128.683594 89.136719 128.421875 C 89.394531 128.164062 89.675781 127.929688 89.976562 127.726562 C 90.28125 127.519531 90.597656 127.347656 90.933594 127.203125 C 91.273438 127.0625 91.621094 126.953125 91.976562 126.878906 C 92.335938 126.804688 92.695312 126.765625 93.0625 126.761719 Z M 93.0625 126.761719 " fill-opacity="1" fill-rule="nonzero"/></g></svg>