<svg xmlns="http://www.w3.org/2000/svg" xmlns:xlink="http://www.w3.org/1999/xlink" width="299" zoomAndPan="magnify" viewBox="0 0 224.25 223.499992" height="298" preserveAspectRatio="xMidYMid meet" version="1.0"><defs><clipPath id="b490feb0c3"><path d="M 0 0.125 L 223.503906 0.125 L 223.503906 222.878906 L 0 222.878906 Z M 0 0.125 " clip-rule="nonzero"/></clipPath><clipPath id="54d3c5973b"><path d="M 0.375 0.496094 L 222.382812 0.496094 L 222.382812 222.503906 L 0.375 222.503906 Z M 0.375 0.496094 " clip-rule="nonzero"/></clipPath></defs><g clip-path="url(#b490feb0c3)"><path fill="#ffffff" d="M 0 0.125 L 223.503906 0.125 L 223.503906 222.878906 L 0 222.878906 Z M 0 0.125 " fill-opacity="1" fill-rule="nonzero"/></g><g clip-path="url(#54d3c5973b)"><path fill="#ffffff" d="M 111.558594 157.539062 C 86.234375 157.539062 65.703125 137.007812 65.703125 111.683594 C 65.703125 86.355469 86.234375 65.824219 111.558594 65.824219 C 136.886719 65.824219 157.414062 86.355469 157.414062 111.683594 C 157.414062 137.007812 136.886719 157.539062 111.558594 157.539062 Z M 216.738281 90.242188 L 196.210938 87.8125 C 194.355469 81.214844 191.722656 74.796875 188.304688 68.695312 L 201.09375 52.46875 C 203.230469 49.761719 203 45.882812 200.5625 43.449219 L 179.792969 22.679688 C 177.359375 20.242188 173.480469 20.011719 170.773438 22.148438 L 154.546875 34.9375 C 148.445312 31.515625 142.023438 28.886719 135.429688 27.03125 L 133 6.5 C 132.59375 3.074219 129.691406 0.496094 126.242188 0.496094 L 96.875 0.496094 C 93.425781 0.496094 90.523438 3.074219 90.121094 6.5 L 87.6875 27.03125 C 81.09375 28.886719 74.671875 31.515625 68.574219 34.9375 L 52.34375 22.148438 C 49.636719 20.011719 45.761719 20.242188 43.324219 22.679688 L 22.554688 43.449219 C 20.117188 45.882812 19.886719 49.761719 22.023438 52.46875 L 34.816406 68.695312 C 31.394531 74.796875 28.761719 81.214844 26.90625 87.8125 L 6.375 90.242188 C 2.953125 90.648438 0.375 93.550781 0.375 96.996094 L 0.375 126.367188 C 0.375 129.816406 2.953125 132.71875 6.375 133.125 L 26.90625 135.550781 C 28.761719 142.144531 31.394531 148.570312 34.816406 154.667969 L 22.023438 170.894531 C 19.886719 173.605469 20.117188 177.480469 22.554688 179.917969 L 43.324219 200.683594 C 45.761719 203.121094 49.636719 203.351562 52.34375 201.21875 L 68.574219 188.425781 C 74.671875 191.847656 81.09375 194.480469 87.6875 196.332031 L 90.121094 216.863281 C 90.523438 220.289062 93.425781 222.867188 96.875 222.867188 L 125.757812 222.867188 C 129.140625 222.867188 132.015625 220.375 132.492188 217.019531 L 135.429688 196.332031 C 142.023438 194.480469 148.445312 191.847656 154.546875 188.425781 L 170.773438 201.21875 C 173.480469 203.351562 177.359375 203.121094 179.792969 200.683594 L 200.5625 179.917969 C 203 177.480469 203.230469 173.605469 201.09375 170.894531 L 188.304688 154.667969 C 191.722656 148.570312 194.355469 142.144531 196.210938 135.550781 L 216.738281 133.125 C 220.164062 132.71875 222.742188 129.816406 222.742188 126.367188 L 222.742188 96.996094 C 222.742188 93.550781 220.164062 90.648438 216.738281 90.242188 " fill-opacity="1" fill-rule="nonzero"/><path fill="#ffffff" d="M 111.558594 157.539062 C 86.234375 157.539062 65.703125 137.007812 65.703125 111.683594 C 65.703125 86.355469 86.234375 65.824219 111.558594 65.824219 C 136.886719 65.824219 157.414062 86.355469 157.414062 111.683594 C 157.414062 137.007812 136.886719 157.539062 111.558594 157.539062 Z M 216.738281 90.242188 L 196.210938 87.8125 C 194.355469 81.214844 191.722656 74.796875 188.304688 68.695312 L 201.09375 52.46875 C 203.230469 49.761719 203 45.882812 200.5625 43.449219 L 179.792969 22.679688 C 177.359375 20.242188 173.480469 20.011719 170.773438 22.148438 L 154.546875 34.9375 C 148.445312 31.515625 142.023438 28.886719 135.429688 27.03125 L 133 6.5 C 132.59375 3.074219 129.691406 0.496094 126.242188 0.496094 L 96.875 0.496094 C 93.425781 0.496094 90.523438 3.074219 90.121094 6.5 L 87.6875 27.03125 C 81.09375 28.886719 74.671875 31.515625 68.574219 34.9375 L 52.34375 22.148438 C 49.636719 20.011719 45.761719 20.242188 43.324219 22.679688 L 22.554688 43.449219 C 20.117188 45.882812 19.886719 49.761719 22.023438 52.46875 L 34.816406 68.695312 C 31.394531 74.796875 28.761719 81.214844 26.90625 87.8125 L 6.375 90.242188 C 2.953125 90.648438 0.375 93.550781 0.375 96.996094 L 0.375 126.367188 C 0.375 129.816406 2.953125 132.71875 6.375 133.125 L 26.90625 135.550781 C 28.761719 142.144531 31.394531 148.570312 34.816406 154.667969 L 22.023438 170.894531 C 19.886719 173.605469 20.117188 177.480469 22.554688 179.917969 L 43.324219 200.683594 C 45.761719 203.121094 49.636719 203.351562 52.34375 201.21875 L 68.574219 188.425781 C 74.671875 191.847656 81.09375 194.480469 87.6875 196.332031 L 90.121094 216.863281 C 90.523438 220.289062 93.425781 222.867188 96.875 222.867188 L 125.757812 222.867188 C 129.140625 222.867188 132.015625 220.375 132.492188 217.019531 L 135.429688 196.332031 C 142.023438 194.480469 148.445312 191.847656 154.546875 188.425781 L 170.773438 201.21875 C 173.480469 203.351562 177.359375 203.121094 179.792969 200.683594 L 200.5625 179.917969 C 203 177.480469 203.230469 173.605469 201.09375 170.894531 L 188.304688 154.667969 C 191.722656 148.570312 194.355469 142.144531 196.210938 135.550781 L 216.738281 133.125 C 220.164062 132.71875 222.742188 129.816406 222.742188 126.367188 L 222.742188 96.996094 C 222.742188 93.550781 220.164062 90.648438 216.738281 90.242188 " fill-opacity="1" fill-rule="nonzero"/></g></svg>