<svg xmlns="http://www.w3.org/2000/svg" xmlns:xlink="http://www.w3.org/1999/xlink" width="298" zoomAndPan="magnify" viewBox="0 0 223.5 223.499992" height="298" preserveAspectRatio="xMidYMid meet" version="1.0"><defs><clipPath id="49d165275c"><path d="M 0.144531 0.375 L 222.398438 0.375 L 222.398438 222.628906 L 0.144531 222.628906 Z M 0.144531 0.375 " clip-rule="nonzero"/></clipPath><clipPath id="3b8d95ae7f"><path d="M 9.492188 9.578125 L 213.785156 9.578125 L 213.785156 213.871094 L 9.492188 213.871094 Z M 9.492188 9.578125 " clip-rule="nonzero"/></clipPath><clipPath id="5c28055683"><path d="M 66.558594 66.640625 L 156.359375 66.640625 L 156.359375 156.441406 L 66.558594 156.441406 Z M 66.558594 66.640625 " clip-rule="nonzero"/></clipPath><clipPath id="339ae6dead"><path d="M 111.457031 66.640625 C 86.660156 66.640625 66.558594 86.746094 66.558594 111.542969 C 66.558594 136.339844 86.660156 156.441406 111.457031 156.441406 C 136.257812 156.441406 156.359375 136.339844 156.359375 111.542969 C 156.359375 86.746094 136.257812 66.640625 111.457031 66.640625 Z M 111.457031 66.640625 " clip-rule="nonzero"/></clipPath></defs><g clip-path="url(#49d165275c)"><path fill="#227a52" d="M 111.453125 157.589844 C 86.097656 157.589844 65.546875 137.035156 65.546875 111.683594 C 65.546875 86.328125 86.097656 65.773438 111.453125 65.773438 C 136.808594 65.773438 157.359375 86.328125 157.359375 111.683594 C 157.359375 137.035156 136.808594 157.589844 111.453125 157.589844 Z M 216.75 90.21875 L 196.199219 87.785156 C 194.339844 81.183594 191.707031 74.753906 188.28125 68.648438 L 201.085938 52.402344 C 203.226562 49.691406 202.996094 45.8125 200.554688 43.371094 L 179.761719 22.582031 C 177.324219 20.140625 173.445312 19.910156 170.734375 22.046875 L 154.488281 34.855469 C 148.382812 31.429688 141.949219 28.792969 135.351562 26.9375 L 132.917969 6.382812 C 132.511719 2.957031 129.605469 0.375 126.152344 0.375 L 96.75 0.375 C 93.300781 0.375 90.394531 2.957031 89.992188 6.382812 L 87.554688 26.9375 C 80.953125 28.792969 74.527344 31.429688 68.417969 34.855469 L 52.171875 22.046875 C 49.464844 19.910156 45.582031 20.140625 43.140625 22.582031 L 22.351562 43.371094 C 19.910156 45.8125 19.679688 49.691406 21.820312 52.402344 L 34.625 68.648438 C 31.199219 74.753906 28.5625 81.183594 26.707031 87.785156 L 6.152344 90.21875 C 2.726562 90.625 0.144531 93.53125 0.144531 96.980469 L 0.144531 126.382812 C 0.144531 129.835938 2.726562 132.738281 6.152344 133.148438 L 26.707031 135.578125 C 28.5625 142.179688 31.199219 148.609375 34.625 154.714844 L 21.820312 170.960938 C 19.679688 173.671875 19.910156 177.554688 22.351562 179.992188 L 43.140625 200.785156 C 45.582031 203.222656 49.464844 203.453125 52.171875 201.316406 L 68.417969 188.511719 C 74.527344 191.9375 80.953125 194.570312 87.554688 196.425781 L 89.992188 216.980469 C 90.394531 220.410156 93.300781 222.988281 96.75 222.988281 L 125.667969 222.988281 C 129.054688 222.988281 131.929688 220.496094 132.410156 217.136719 L 135.351562 196.425781 C 141.949219 194.570312 148.382812 191.9375 154.488281 188.511719 L 170.734375 201.316406 C 173.445312 203.453125 177.324219 203.222656 179.761719 200.785156 L 200.554688 179.992188 C 202.996094 177.554688 203.226562 173.671875 201.085938 170.960938 L 188.28125 154.714844 C 191.707031 148.609375 194.339844 142.179688 196.199219 135.578125 L 216.75 133.148438 C 220.179688 132.738281 222.761719 129.835938 222.761719 126.382812 L 222.761719 96.980469 C 222.761719 93.53125 220.179688 90.625 216.75 90.21875 " fill-opacity="1" fill-rule="nonzero"/></g><g clip-path="url(#3b8d95ae7f)"><path fill="#ffffff" d="M 111.453125 153.585938 C 88.226562 153.585938 69.402344 134.761719 69.402344 111.535156 C 69.402344 88.3125 88.226562 69.484375 111.453125 69.484375 C 134.679688 69.484375 153.503906 88.3125 153.503906 111.535156 C 153.503906 134.761719 134.679688 153.585938 111.453125 153.585938 Z M 207.90625 91.875 L 189.082031 89.644531 C 187.378906 83.597656 184.96875 77.710938 181.828125 72.117188 L 193.558594 57.234375 C 195.515625 54.753906 195.304688 51.195312 193.070312 48.964844 L 174.027344 29.917969 C 171.792969 27.683594 168.238281 27.472656 165.753906 29.429688 L 150.875 41.160156 C 145.28125 38.023438 139.390625 35.609375 133.34375 33.910156 L 131.117188 15.082031 C 130.742188 11.941406 128.082031 9.578125 124.917969 9.578125 L 97.984375 9.578125 C 94.824219 9.578125 92.164062 11.941406 91.792969 15.082031 L 89.5625 33.910156 C 83.515625 35.609375 77.625 38.023438 72.035156 41.160156 L 57.152344 29.429688 C 54.667969 27.472656 51.113281 27.683594 48.878906 29.917969 L 29.835938 48.964844 C 27.601562 51.195312 27.390625 54.753906 29.347656 57.234375 L 41.078125 72.117188 C 37.941406 77.710938 35.523438 83.597656 33.824219 89.644531 L 14.996094 91.875 C 11.859375 92.246094 9.492188 94.90625 9.492188 98.070312 L 9.492188 125 C 9.492188 128.164062 11.859375 130.824219 14.996094 131.199219 L 33.824219 133.425781 C 35.523438 139.472656 37.941406 145.363281 41.078125 150.957031 L 29.347656 165.835938 C 27.390625 168.320312 27.601562 171.875 29.835938 174.109375 L 48.878906 193.152344 C 51.113281 195.390625 54.667969 195.601562 57.152344 193.640625 L 72.035156 181.914062 C 77.625 185.050781 83.515625 187.460938 89.5625 189.164062 L 91.792969 207.988281 C 92.164062 211.132812 94.824219 213.496094 97.984375 213.496094 L 124.472656 213.496094 C 127.578125 213.496094 130.210938 211.210938 130.648438 208.132812 L 133.34375 189.164062 C 139.390625 187.460938 145.28125 185.050781 150.875 181.914062 L 165.753906 193.640625 C 168.238281 195.601562 171.792969 195.390625 174.027344 193.152344 L 193.070312 174.109375 C 195.304688 171.875 195.515625 168.320312 193.558594 165.835938 L 181.828125 150.957031 C 184.96875 145.363281 187.378906 139.472656 189.082031 133.425781 L 207.90625 131.199219 C 211.046875 130.824219 213.414062 128.164062 213.414062 125 L 213.414062 98.070312 C 213.414062 94.90625 211.046875 92.246094 207.90625 91.875 " fill-opacity="1" fill-rule="nonzero"/></g><g clip-path="url(#5c28055683)"><g clip-path="url(#339ae6dead)"><path fill="#227a52" d="M 66.558594 66.640625 L 156.359375 66.640625 L 156.359375 156.441406 L 66.558594 156.441406 Z M 66.558594 66.640625 " fill-opacity="1" fill-rule="nonzero"/></g></g></svg>