<svg xmlns="http://www.w3.org/2000/svg" xmlns:xlink="http://www.w3.org/1999/xlink" width="227" zoomAndPan="magnify" viewBox="0 0 170.25 239.999998" height="320" preserveAspectRatio="xMidYMid meet" version="1.0"><defs><clipPath id="e57105e9fc"><path d="M 1 1 L 168.628906 1 L 168.628906 239.46875 L 1 239.46875 Z M 1 1 " clip-rule="nonzero"/></clipPath><clipPath id="c46ca6db5b"><path d="M 17.242188 5.167969 L 151.210938 5.167969 L 151.210938 239.472656 L 17.242188 239.472656 Z M 17.242188 5.167969 " clip-rule="nonzero"/></clipPath><clipPath id="6c75015a91"><path d="M 84.226562 5.167969 L 17.242188 79.347656 L 54.332031 79.347656 L 54.332031 239.472656 L 114.121094 239.472656 L 114.121094 79.347656 L 151.210938 79.347656 Z M 84.226562 5.167969 " clip-rule="nonzero"/></clipPath><clipPath id="1909b13b38"><path d="M 6.8125 5.167969 L 163.9375 5.167969 L 163.9375 98.496094 L 6.8125 98.496094 Z M 6.8125 5.167969 " clip-rule="nonzero"/></clipPath><clipPath id="535064cdc9"><path d="M 85.222656 5.167969 L 163.628906 98.496094 L 6.8125 98.496094 Z M 85.222656 5.167969 " clip-rule="nonzero"/></clipPath></defs><g clip-path="url(#e57105e9fc)"><path fill="#00703c" d="M 84.898438 231.332031 L 112.976562 231.332031 L 112.976562 98.566406 C 112.976562 96.355469 114.773438 94.558594 116.988281 94.558594 L 156.03125 94.558594 L 84.898438 11.265625 L 13.761719 94.558594 L 52.808594 94.558594 C 55.019531 94.558594 56.820312 96.355469 56.820312 98.566406 L 56.820312 231.332031 Z M 116.988281 239.355469 L 52.808594 239.355469 C 50.59375 239.355469 48.796875 237.558594 48.796875 235.34375 L 48.796875 102.578125 L 5.078125 102.578125 L 5.078125 102.570312 C 4.15625 102.570312 3.230469 102.253906 2.476562 101.609375 C 0.800781 100.171875 0.601562 97.644531 2.039062 95.96875 L 81.824219 2.554688 C 81.96875 2.386719 82.125 2.222656 82.300781 2.074219 C 83.976562 0.636719 86.503906 0.835938 87.9375 2.511719 L 167.570312 95.746094 C 168.289062 96.46875 168.730469 97.464844 168.730469 98.566406 C 168.730469 100.78125 166.933594 102.578125 164.71875 102.578125 L 121 102.578125 L 121 235.34375 C 121 237.5625 119.203125 239.355469 116.988281 239.355469 Z M 116.988281 239.355469 " fill-opacity="1" fill-rule="evenodd"/></g><g clip-path="url(#c46ca6db5b)"><g clip-path="url(#6c75015a91)"><path fill="#00703c" d="M 17.242188 5.167969 L 151.210938 5.167969 L 151.210938 239.613281 L 17.242188 239.613281 Z M 17.242188 5.167969 " fill-opacity="1" fill-rule="nonzero"/></g></g><g clip-path="url(#1909b13b38)"><g clip-path="url(#535064cdc9)"><path fill="#00703c" d="M 6.8125 5.167969 L 163.574219 5.167969 L 163.574219 98.496094 L 6.8125 98.496094 Z M 6.8125 5.167969 " fill-opacity="1" fill-rule="nonzero"/></g></g></svg>