<svg xmlns="http://www.w3.org/2000/svg" xmlns:xlink="http://www.w3.org/1999/xlink" width="227" zoomAndPan="magnify" viewBox="0 0 170.25 239.999998" height="320" preserveAspectRatio="xMidYMid meet" version="1.0"><defs><clipPath id="1f1e2b9045"><path d="M 1 1 L 168.753906 1 L 168.753906 239.46875 L 1 239.46875 Z M 1 1 " clip-rule="nonzero"/></clipPath><clipPath id="855b7b0572"><path d="M 1 1 L 168.707031 1 L 168.707031 239.46875 L 1 239.46875 Z M 1 1 " clip-rule="nonzero"/></clipPath></defs><g clip-path="url(#1f1e2b9045)"><path fill="#00703c" d="M 85.023438 231.332031 L 113.101562 231.332031 L 113.101562 98.566406 C 113.101562 96.355469 114.898438 94.558594 117.113281 94.558594 L 156.15625 94.558594 L 85.023438 11.265625 L 13.886719 94.558594 L 52.933594 94.558594 C 55.144531 94.558594 56.945312 96.355469 56.945312 98.566406 L 56.945312 231.332031 Z M 117.113281 239.355469 L 52.933594 239.355469 C 50.71875 239.355469 48.921875 237.558594 48.921875 235.34375 L 48.921875 102.578125 L 5.203125 102.578125 L 5.203125 102.570312 C 4.28125 102.570312 3.355469 102.253906 2.601562 101.609375 C 0.925781 100.171875 0.726562 97.644531 2.164062 95.96875 L 81.949219 2.554688 C 82.09375 2.386719 82.25 2.222656 82.425781 2.074219 C 84.101562 0.636719 86.628906 0.835938 88.0625 2.511719 L 167.695312 95.746094 C 168.414062 96.46875 168.855469 97.464844 168.855469 98.566406 C 168.855469 100.78125 167.058594 102.578125 164.84375 102.578125 L 121.125 102.578125 L 121.125 235.34375 C 121.125 237.5625 119.328125 239.355469 117.113281 239.355469 Z M 117.113281 239.355469 " fill-opacity="1" fill-rule="evenodd"/></g><g clip-path="url(#855b7b0572)"><path fill="#00703c" d="M 84.980469 231.332031 L 113.058594 231.332031 L 113.058594 98.566406 C 113.058594 96.355469 114.855469 94.558594 117.070312 94.558594 L 156.113281 94.558594 L 84.980469 11.265625 L 13.84375 94.558594 L 52.890625 94.558594 C 55.101562 94.558594 56.898438 96.355469 56.898438 98.566406 L 56.898438 231.332031 Z M 117.070312 239.355469 L 52.890625 239.355469 C 50.675781 239.355469 48.878906 237.558594 48.878906 235.34375 L 48.878906 102.578125 L 5.160156 102.578125 L 5.160156 102.570312 C 4.234375 102.570312 3.3125 102.253906 2.558594 101.609375 C 0.882812 100.171875 0.683594 97.644531 2.121094 95.96875 L 81.90625 2.554688 C 82.046875 2.386719 82.207031 2.222656 82.378906 2.074219 C 84.058594 0.636719 86.585938 0.835938 88.019531 2.511719 L 167.652344 95.746094 C 168.371094 96.46875 168.8125 97.464844 168.8125 98.566406 C 168.8125 100.78125 167.015625 102.578125 164.800781 102.578125 L 121.082031 102.578125 L 121.082031 235.34375 C 121.082031 237.5625 119.285156 239.355469 117.070312 239.355469 Z M 117.070312 239.355469 " fill-opacity="1" fill-rule="evenodd"/></g></svg>