<svg xmlns="http://www.w3.org/2000/svg" xmlns:xlink="http://www.w3.org/1999/xlink" width="226" zoomAndPan="magnify" viewBox="0 0 169.5 240.749997" height="321" preserveAspectRatio="xMidYMid meet" version="1.0"><defs><clipPath id="f4e7694e62"><path d="M 0.449219 0.265625 L 168.703125 0.265625 L 168.703125 239.558594 L 0.449219 239.558594 Z M 0.449219 0.265625 " clip-rule="nonzero"/></clipPath><clipPath id="4031099fa9"><path d="M 0.40625 0.265625 L 168.660156 0.265625 L 168.660156 239.558594 L 0.40625 239.558594 Z M 0.40625 0.265625 " clip-rule="nonzero"/></clipPath></defs><g clip-path="url(#f4e7694e62)"><path fill="#00703c" d="M 84.851562 231.410156 L 112.972656 231.410156 L 112.972656 98.453125 C 112.972656 96.238281 114.773438 94.4375 116.992188 94.4375 L 156.089844 94.4375 L 84.851562 11.027344 L 13.617188 94.4375 L 52.714844 94.4375 C 54.933594 94.4375 56.734375 96.238281 56.734375 98.453125 L 56.734375 231.410156 Z M 116.992188 239.445312 L 52.714844 239.445312 C 50.5 239.445312 48.699219 237.644531 48.699219 235.429688 L 48.699219 102.472656 L 4.917969 102.472656 L 4.917969 102.460938 C 3.992188 102.460938 3.070312 102.144531 2.3125 101.5 C 0.636719 100.058594 0.433594 97.53125 1.875 95.851562 L 81.777344 2.300781 C 81.917969 2.132812 82.078125 1.96875 82.25 1.820312 C 83.929688 0.378906 86.464844 0.578125 87.898438 2.257812 L 167.644531 95.628906 C 168.363281 96.351562 168.808594 97.351562 168.808594 98.453125 C 168.808594 100.671875 167.007812 102.472656 164.789062 102.472656 L 121.007812 102.472656 L 121.007812 235.429688 C 121.007812 237.652344 119.207031 239.445312 116.992188 239.445312 Z M 116.992188 239.445312 " fill-opacity="1" fill-rule="evenodd"/></g><g clip-path="url(#4031099fa9)"><path fill="#000a05" d="M 84.808594 231.410156 L 112.929688 231.410156 L 112.929688 98.453125 C 112.929688 96.238281 114.730469 94.4375 116.945312 94.4375 L 156.046875 94.4375 L 84.808594 11.027344 L 13.574219 94.4375 L 52.671875 94.4375 C 54.890625 94.4375 56.691406 96.238281 56.691406 98.453125 L 56.691406 231.410156 Z M 116.945312 239.445312 L 52.671875 239.445312 C 50.457031 239.445312 48.65625 237.644531 48.65625 235.429688 L 48.65625 102.472656 L 4.871094 102.472656 L 4.871094 102.460938 C 3.949219 102.460938 3.023438 102.144531 2.269531 101.5 C 0.589844 100.058594 0.390625 97.53125 1.832031 95.851562 L 81.730469 2.300781 C 81.875 2.132812 82.03125 1.96875 82.207031 1.820312 C 83.886719 0.378906 86.417969 0.578125 87.855469 2.257812 L 167.601562 95.628906 C 168.320312 96.351562 168.765625 97.351562 168.765625 98.453125 C 168.765625 100.671875 166.964844 102.472656 164.746094 102.472656 L 120.964844 102.472656 L 120.964844 235.429688 C 120.964844 237.652344 119.164062 239.445312 116.945312 239.445312 Z M 116.945312 239.445312 " fill-opacity="1" fill-rule="evenodd"/></g></svg>